<?xml version="1.0" encoding="UTF-8"?>
<svg width="250px" height="59px" viewBox="0 0 250 59" version="1.1" xmlns="http://www.w3.org/2000/svg" xmlns:xlink="http://www.w3.org/1999/xlink">
    <!-- Generator: Sketch 51.2 (57519) - http://www.bohemiancoding.com/sketch -->
    <title>DAH-Logo</title>
    <desc>Created with Sketch.</desc>
    <defs>
        <polygon id="path-1" points="0 0.167050965 249.832412 0.167050965 249.832412 16.2751017 0 16.2751017"></polygon>
    </defs>
    <g id="DAH-Logo" stroke="none" stroke-width="1" fill="none" fill-rule="evenodd">
        <g>
            <path d="M5.33887113,55.8224453 L5.33887113,56.2669509 C5.33887113,56.9227066 4.72025194,57.8887361 3.39553204,57.8887361 C2.2720196,57.8887361 1.36346171,57.1669647 1.36346171,55.8664558 L1.36346171,54.1555494 C1.36346171,52.8561408 2.25952224,52.1222665 3.38303468,52.1222665 C4.58153127,52.1222665 5.15016104,52.8781461 5.2501399,53.5339018 C5.2888817,53.6890386 5.36386585,53.7671572 5.49008916,53.7671572 L6.44988622,53.7671572 C6.56361217,53.7671572 6.63859632,53.7000413 6.63859632,53.5889149 C6.63859632,53.5339018 6.63859632,53.4887911 6.62609896,53.433778 C6.42364177,52.1673773 5.31387642,51 3.38303468,51 C1.45219294,51 0,52.2443955 0,54.1335442 L0,55.8664558 C0,57.6554807 1.27473047,59 3.3068008,59 C4.26659786,59 5.07392715,58.6446156 5.45259709,58.0889836 L5.45259709,58.633613 C5.45259709,58.7777472 5.5788204,58.8888736 5.74253578,58.8888736 L6.36115498,58.8888736 C6.52487036,58.8888736 6.65109367,58.7777472 6.65109367,58.633613 L6.65109367,54.9895475 C6.65109367,54.844313 6.52487036,54.7331866 6.36115498,54.7331866 L3.52175535,54.7331866 C3.35679023,54.7331866 3.23181666,54.844313 3.23181666,54.9895475 L3.23181666,55.5561821 C3.23181666,55.7003163 3.35679023,55.8224453 3.52175535,55.8224453 L5.33887113,55.8224453 Z M15.2717709,51.3773896 C15.2717709,51.2332554 15.1330502,51.1111264 14.9680851,51.1111264 L10.0466257,51.1111264 C9.88166059,51.1111264 9.75543728,51.2332554 9.75543728,51.3773896 L9.75543728,58.633613 C9.75543728,58.7777472 9.88166059,58.8888736 10.0466257,58.8888736 L14.9680851,58.8888736 C15.1330502,58.8888736 15.2717709,58.7777472 15.2717709,58.633613 L15.2717709,58.0339706 C15.2717709,57.8777335 15.1330502,57.7776097 14.9680851,57.7776097 L11.118899,57.7776097 L11.118899,55.5110714 L14.1607558,55.5110714 C14.3244712,55.5110714 14.4631919,55.399945 14.4631919,55.2558108 L14.4631919,54.6561683 C14.4631919,54.5109338 14.3244712,54.3888048 14.1607558,54.3888048 L11.118899,54.3888048 L11.118899,52.2333929 L14.9680851,52.2333929 C15.1330502,52.2333929 15.2717709,52.1222665 15.2717709,51.9781323 L15.2717709,51.3773896 Z M19.4608851,52.2333929 L21.4929555,52.2333929 C22.2752901,52.2333929 22.9451484,52.5447669 22.9451484,53.4667859 L22.9451484,53.6340256 C22.9451484,54.4669234 22.2752901,54.8333104 21.4929555,54.8333104 L19.4608851,54.8333104 L19.4608851,52.2333929 Z M19.4608851,55.9555769 L21.2280115,55.9555769 L22.805178,58.688626 C22.8689145,58.7997524 22.9701431,58.8888736 23.1338585,58.8888736 L24.0936556,58.8888736 C24.2186291,58.8888736 24.294863,58.8228579 24.294863,58.7117315 C24.294863,58.633613 24.257371,58.5785999 24.2061318,58.4894788 L22.5664785,55.7553294 C23.7774724,55.4340531 24.3073604,54.6451657 24.3073604,53.6340256 L24.3073604,53.3886673 C24.3073604,51.8780085 23.1713506,51.1111264 21.5816867,51.1111264 L18.3886119,51.1111264 C18.2248965,51.1111264 18.0986732,51.2332554 18.0986732,51.3773896 L18.0986732,58.633613 C18.0986732,58.7777472 18.2248965,58.8888736 18.3886119,58.8888736 L19.1584491,58.8888736 C19.3221645,58.8888736 19.4608851,58.7777472 19.4608851,58.633613 L19.4608851,55.9555769 Z M28.1815412,58.8888736 C28.3465063,58.8888736 28.485227,58.7777472 28.485227,58.633613 L28.485227,52.9001513 L30.9459567,58.7337368 C30.9834488,58.8338605 31.0471853,58.8888736 31.1984033,58.8888736 L31.904504,58.8888736 C32.01823,58.8888736 32.1194586,58.8448632 32.1706977,58.7227341 L34.5926856,52.9331591 L34.5926856,58.633613 C34.5926856,58.7777472 34.732656,58.8888736 34.8963714,58.8888736 L35.6149695,58.8888736 C35.7799346,58.8888736 35.9061579,58.7777472 35.9061579,58.633613 L35.9061579,51.3773896 C35.9061579,51.2332554 35.7799346,51.1111264 35.6149695,51.1111264 L34.2902496,51.1111264 C34.1765236,51.1111264 34.1015395,51.1892449 34.0627977,51.2673635 L31.5645759,57.2219777 L29.0776018,51.2552606 C29.0401097,51.1892449 28.9638758,51.1111264 28.8251551,51.1111264 L27.4754405,51.1111264 C27.3104754,51.1111264 27.1842521,51.2332554 27.1842521,51.3773896 L27.1842521,58.633613 C27.1842521,58.7777472 27.3104754,58.8888736 27.4754405,58.8888736 L28.1815412,58.8888736 Z M43.4533121,55.9885848 L40.7151411,55.9885848 L42.0911001,52.511759 L43.4533121,55.9885848 Z M40.2989791,57.0668409 L43.8707239,57.0668409 L44.5393325,58.7447394 C44.5643272,58.8228579 44.6405611,58.8888736 44.7917791,58.8888736 L45.7253317,58.8888736 C45.8390577,58.8888736 45.9402863,58.8228579 45.9402863,58.7117315 C45.9402863,58.6556182 45.8765497,58.5334892 45.8640524,58.4894788 L42.9234242,51.3223766 C42.8859321,51.2222528 42.7972008,51.1111264 42.6334855,51.1111264 L41.5987043,51.1111264 C41.4349889,51.1111264 41.3337603,51.2222528 41.2962682,51.3223766 L38.3681373,58.5004814 C38.3293955,58.5785999 38.2919035,58.6556182 38.2919035,58.7117315 C38.2919035,58.8228579 38.393132,58.8888736 38.506858,58.8888736 L39.3904212,58.8888736 C39.4779027,58.8888736 39.5916286,58.8668684 39.6303704,58.7337368 L40.2989791,57.0668409 Z M49.4882861,58.633613 L49.4882861,53.0002751 L53.3249748,58.5896025 C53.527432,58.8888736 53.67865,58.8888736 53.792376,58.8888736 L54.4859793,58.8888736 C54.6496947,58.8888736 54.7884154,58.7777472 54.7884154,58.633613 L54.7884154,51.3773896 C54.7884154,51.2332554 54.6496947,51.1111264 54.4859793,51.1111264 L53.7536342,51.1111264 C53.5899188,51.1111264 53.4511981,51.2332554 53.4511981,51.3773896 L53.4511981,56.7004539 L49.7657274,51.3223766 C49.715738,51.244258 49.602012,51.1111264 49.4257993,51.1111264 L48.4535049,51.1111264 C48.2897895,51.1111264 48.1635662,51.2332554 48.1635662,51.3773896 L48.1635662,58.633613 C48.1635662,58.7777472 48.2897895,58.8888736 48.4535049,58.8888736 L49.1983474,58.8888736 C49.3620627,58.8888736 49.4882861,58.7777472 49.4882861,58.633613 Z M67.6994354,51.3773896 C67.6994354,51.2332554 67.5607148,51.1111264 67.3969994,51.1111264 L62.4742903,51.1111264 C62.3105749,51.1111264 62.1843516,51.2332554 62.1843516,51.3773896 L62.1843516,58.633613 C62.1843516,58.7777472 62.3105749,58.8888736 62.4742903,58.8888736 L67.3969994,58.8888736 C67.5607148,58.8888736 67.6994354,58.7777472 67.6994354,58.633613 L67.6994354,58.0339706 C67.6994354,57.8777335 67.5607148,57.7776097 67.3969994,57.7776097 L63.5478133,57.7776097 L63.5478133,55.5110714 L66.5896701,55.5110714 C66.7533855,55.5110714 66.8921061,55.399945 66.8921061,55.2558108 L66.8921061,54.6561683 C66.8921061,54.5109338 66.7533855,54.3888048 66.5896701,54.3888048 L63.5478133,54.3888048 L63.5478133,52.2333929 L67.3969994,52.2333929 C67.5607148,52.2333929 67.6994354,52.1222665 67.6994354,51.9781323 L67.6994354,51.3773896 Z M71.5236268,58.8888736 C71.6873422,58.8888736 71.8273126,58.7777472 71.8273126,58.633613 L71.8273126,52.9001513 L74.2880423,58.7337368 C74.3255344,58.8338605 74.3892709,58.8888736 74.540489,58.8888736 L75.2465897,58.8888736 C75.3603156,58.8888736 75.4615442,58.8448632 75.5115336,58.7227341 L77.9347713,52.9331591 L77.9347713,58.633613 C77.9347713,58.7777472 78.0734919,58.8888736 78.238457,58.8888736 L78.9570551,58.8888736 C79.1220202,58.8888736 79.2482435,58.7777472 79.2482435,58.633613 L79.2482435,51.3773896 C79.2482435,51.2332554 79.1220202,51.1111264 78.9570551,51.1111264 L77.6323352,51.1111264 C77.5186092,51.1111264 77.4423754,51.1892449 77.4048833,51.2673635 L74.9066615,57.2219777 L72.4196874,51.2552606 C72.3821953,51.1892449 72.3059614,51.1111264 72.1672408,51.1111264 L70.8175261,51.1111264 C70.652561,51.1111264 70.5263377,51.2332554 70.5263377,51.3773896 L70.5263377,58.633613 C70.5263377,58.7777472 70.652561,58.8888736 70.8175261,58.8888736 L71.5236268,58.8888736 Z M83.7023018,58.8888736 C83.8660171,58.8888736 84.0047378,58.7777472 84.0047378,58.633613 L84.0047378,51.3773896 C84.0047378,51.2332554 83.8660171,51.1111264 83.7023018,51.1111264 L82.9324645,51.1111264 C82.7674994,51.1111264 82.6412761,51.2332554 82.6412761,51.3773896 L82.6412761,58.633613 C82.6412761,58.7777472 82.7674994,58.8888736 82.9324645,58.8888736 L83.7023018,58.8888736 Z M92.2967345,55.8224453 L92.2967345,56.2669509 C92.2967345,56.9227066 91.6781153,57.8887361 90.3533954,57.8887361 C89.229883,57.8887361 88.3213251,57.1669647 88.3213251,55.8664558 L88.3213251,54.1555494 C88.3213251,52.8561408 89.2173856,52.1222665 90.3408981,52.1222665 C91.5393947,52.1222665 92.1067747,52.8781461 92.2080033,53.5339018 C92.2454954,53.6890386 92.3217292,53.7671572 92.4479525,53.7671572 L93.4077496,53.7671572 C93.5202258,53.7671572 93.5964597,53.7000413 93.5964597,53.5889149 C93.5964597,53.5339018 93.5964597,53.4887911 93.5839623,53.433778 C93.3815052,52.1673773 92.2717398,51 90.3408981,51 C88.4088066,51 86.9578634,52.2443955 86.9578634,54.1335442 L86.9578634,55.8664558 C86.9578634,57.6554807 88.2325939,59 90.2646642,59 C91.2232115,59 92.0317905,58.6446156 92.4104605,58.0889836 L92.4104605,58.633613 C92.4104605,58.7777472 92.5366838,58.8888736 92.7003992,58.8888736 L93.3190184,58.8888736 C93.4827338,58.8888736 93.6089571,58.7777472 93.6089571,58.633613 L93.6089571,54.9895475 C93.6089571,54.844313 93.4827338,54.7331866 93.3190184,54.7331866 L90.4796187,54.7331866 C90.3146536,54.7331866 90.1884303,54.844313 90.1884303,54.9895475 L90.1884303,55.5561821 C90.1884303,55.7003163 90.3146536,55.8224453 90.4796187,55.8224453 L92.2967345,55.8224453 Z M98.0767624,52.2333929 L100.108833,52.2333929 C100.891167,52.2333929 101.559776,52.5447669 101.559776,53.4667859 L101.559776,53.6340256 C101.559776,54.4669234 100.891167,54.8333104 100.108833,54.8333104 L98.0767624,54.8333104 L98.0767624,52.2333929 Z M98.0767624,55.9555769 L99.8438887,55.9555769 L101.421055,58.688626 C101.484792,58.7997524 101.584771,58.8888736 101.749736,58.8888736 L102.708283,58.8888736 C102.834506,58.8888736 102.91074,58.8228579 102.91074,58.7117315 C102.91074,58.633613 102.871998,58.5785999 102.822009,58.4894788 L101.181106,55.7553294 C102.39335,55.4340531 102.923238,54.6451657 102.923238,53.6340256 L102.923238,53.3886673 C102.923238,51.8780085 101.787228,51.1111264 100.197564,51.1111264 L97.0044891,51.1111264 C96.839524,51.1111264 96.7133007,51.2332554 96.7133007,51.3773896 L96.7133007,58.633613 C96.7133007,58.7777472 96.839524,58.8888736 97.0044891,58.8888736 L97.7743263,58.8888736 C97.9380417,58.8888736 98.0767624,58.7777472 98.0767624,58.633613 L98.0767624,55.9555769 Z M109.916759,55.9885848 L107.177338,55.9885848 L108.553297,52.511759 L109.916759,55.9885848 Z M106.761176,57.0668409 L110.332921,57.0668409 L111.00153,58.7447394 C111.027774,58.8228579 111.102758,58.8888736 111.253976,58.8888736 L112.188778,58.8888736 C112.302504,58.8888736 112.402483,58.8228579 112.402483,58.7117315 C112.402483,58.6556182 112.339997,58.5334892 112.327499,58.4894788 L109.386871,51.3223766 C109.348129,51.2222528 109.260648,51.1111264 109.095683,51.1111264 L108.060901,51.1111264 C107.897186,51.1111264 107.795957,51.2222528 107.758465,51.3223766 L104.830334,58.5004814 C104.792842,58.5785999 104.754101,58.6556182 104.754101,58.7117315 C104.754101,58.8228579 104.855329,58.8888736 104.969055,58.8888736 L105.852618,58.8888736 C105.941349,58.8888736 106.055075,58.8668684 106.092567,58.7337368 L106.761176,57.0668409 Z M113.186068,51.9781323 C113.186068,52.1222665 113.311041,52.2333929 113.488504,52.2333929 L115.886747,52.2333929 L115.886747,58.633613 C115.886747,58.7777472 116.01297,58.8888736 116.176685,58.8888736 L116.946523,58.8888736 C117.110238,58.8888736 117.236461,58.7777472 117.236461,58.633613 L117.236461,52.2333929 L119.634704,52.2333929 C119.798419,52.2333929 119.93714,52.1222665 119.93714,51.9781323 L119.93714,51.3773896 C119.93714,51.2332554 119.798419,51.1111264 119.634704,51.1111264 L113.488504,51.1111264 C113.311041,51.1111264 113.186068,51.2332554 113.186068,51.3773896 L113.186068,51.9781323 Z M123.508885,58.8888736 C123.6726,58.8888736 123.812571,58.7777472 123.812571,58.633613 L123.812571,51.3773896 C123.812571,51.2332554 123.6726,51.1111264 123.508885,51.1111264 L122.739048,51.1111264 C122.575332,51.1111264 122.449109,51.2332554 122.449109,51.3773896 L122.449109,58.633613 C122.449109,58.7777472 122.575332,58.8888736 122.739048,58.8888736 L123.508885,58.8888736 Z M126.765696,55.8664558 C126.765696,57.7556045 128.21664,59 130.134984,59 C132.040831,59 133.504271,57.7556045 133.504271,55.8664558 L133.504271,54.1335442 C133.504271,52.2443955 132.040831,51 130.122487,51 C128.204142,51 126.765696,52.2443955 126.765696,54.1335442 L126.765696,55.8664558 Z M128.127908,54.1555494 C128.127908,52.8561408 129.023969,52.1222665 130.122487,52.1222665 C131.219755,52.1222665 132.14206,52.8561408 132.14206,54.1555494 L132.14206,55.8664558 C132.14206,57.1669647 131.219755,57.8887361 130.134984,57.8887361 C129.023969,57.8887361 128.127908,57.1669647 128.127908,55.8664558 L128.127908,54.1555494 Z M137.783367,58.633613 L137.783367,53.0002751 L141.620055,58.5896025 C141.821263,58.8888736 141.972481,58.8888736 142.086207,58.8888736 L142.78106,58.8888736 C142.944775,58.8888736 143.083496,58.7777472 143.083496,58.633613 L143.083496,51.3773896 C143.083496,51.2332554 142.944775,51.1111264 142.78106,51.1111264 L142.048715,51.1111264 C141.884999,51.1111264 141.746279,51.2332554 141.746279,51.3773896 L141.746279,56.7004539 L138.060808,51.3223766 C138.009569,51.244258 137.895843,51.1111264 137.71963,51.1111264 L136.748585,51.1111264 C136.58362,51.1111264 136.457397,51.2332554 136.457397,51.3773896 L136.457397,58.633613 C136.457397,58.7777472 136.58362,58.8888736 136.748585,58.8888736 L137.492178,58.8888736 C137.657143,58.8888736 137.783367,58.7777472 137.783367,58.633613 Z M155.653338,56.199835 C155.489623,56.199835 155.439633,56.3109614 155.413389,56.4451932 C155.31341,57.2560858 154.656049,57.8887361 153.571278,57.8887361 C152.460263,57.8887361 151.564203,57.1669647 151.564203,55.8664558 L151.564203,54.1555494 C151.564203,52.8561408 152.460263,52.1222665 153.558781,52.1222665 C154.656049,52.1222665 155.274668,52.8000275 155.400892,53.5339018 C155.425886,53.7110439 155.527115,53.7671572 155.640841,53.7671572 L156.574393,53.7671572 C156.726861,53.7671572 156.814343,53.6890386 156.801845,53.5449044 C156.650627,52.1893825 155.477125,51 153.558781,51 C151.640437,51 150.201991,52.2443955 150.201991,54.1445468 L150.201991,55.8664558 C150.201991,57.7556045 151.652934,59 153.571278,59 C155.477125,59 156.714364,57.7446018 156.814343,56.4000825 C156.814343,56.2999587 156.726861,56.199835 156.613135,56.199835 L155.653338,56.199835 Z M165.232563,51.3773896 C165.232563,51.2332554 165.093842,51.1111264 164.930127,51.1111264 L160.007418,51.1111264 C159.843702,51.1111264 159.717479,51.2332554 159.717479,51.3773896 L159.717479,58.633613 C159.717479,58.7777472 159.843702,58.8888736 160.007418,58.8888736 L164.930127,58.8888736 C165.093842,58.8888736 165.232563,58.7777472 165.232563,58.633613 L165.232563,58.0339706 C165.232563,57.8777335 165.093842,57.7776097 164.930127,57.7776097 L161.080941,57.7776097 L161.080941,55.5110714 L164.121548,55.5110714 C164.286513,55.5110714 164.425233,55.399945 164.425233,55.2558108 L164.425233,54.6561683 C164.425233,54.5109338 164.286513,54.3888048 164.121548,54.3888048 L161.080941,54.3888048 L161.080941,52.2333929 L164.930127,52.2333929 C165.093842,52.2333929 165.232563,52.1222665 165.232563,51.9781323 L165.232563,51.3773896 Z M169.384185,58.633613 L169.384185,53.0002751 L173.222123,58.5896025 C173.423331,58.8888736 173.574549,58.8888736 173.688275,58.8888736 L174.383128,58.8888736 C174.546843,58.8888736 174.685564,58.7777472 174.685564,58.633613 L174.685564,51.3773896 C174.685564,51.2332554 174.546843,51.1111264 174.383128,51.1111264 L173.650783,51.1111264 C173.487067,51.1111264 173.348347,51.2332554 173.348347,51.3773896 L173.348347,56.7004539 L169.662876,51.3223766 C169.611637,51.244258 169.497911,51.1111264 169.321698,51.1111264 L168.349404,51.1111264 C168.185688,51.1111264 168.059465,51.2332554 168.059465,51.3773896 L168.059465,58.633613 C168.059465,58.7777472 168.185688,58.8888736 168.349404,58.8888736 L169.094246,58.8888736 C169.257962,58.8888736 169.384185,58.7777472 169.384185,58.633613 Z M177.183786,51.9781323 C177.183786,52.1222665 177.310009,52.2333929 177.487472,52.2333929 L179.885714,52.2333929 L179.885714,58.633613 C179.885714,58.7777472 180.011938,58.8888736 180.175653,58.8888736 L180.94549,58.8888736 C181.109206,58.8888736 181.235429,58.7777472 181.235429,58.633613 L181.235429,52.2333929 L183.633672,52.2333929 C183.797387,52.2333929 183.936108,52.1222665 183.936108,51.9781323 L183.936108,51.3773896 C183.936108,51.2332554 183.797387,51.1111264 183.633672,51.1111264 L177.487472,51.1111264 C177.310009,51.1111264 177.183786,51.2332554 177.183786,51.3773896 L177.183786,51.9781323 Z M191.963161,51.3773896 C191.963161,51.2332554 191.82444,51.1111264 191.660725,51.1111264 L186.738016,51.1111264 C186.5743,51.1111264 186.448077,51.2332554 186.448077,51.3773896 L186.448077,58.633613 C186.448077,58.7777472 186.5743,58.8888736 186.738016,58.8888736 L191.660725,58.8888736 C191.82444,58.8888736 191.963161,58.7777472 191.963161,58.633613 L191.963161,58.0339706 C191.963161,57.8777335 191.82444,57.7776097 191.660725,57.7776097 L187.810289,57.7776097 L187.810289,55.5110714 L190.852146,55.5110714 C191.017111,55.5110714 191.155831,55.399945 191.155831,55.2558108 L191.155831,54.6561683 C191.155831,54.5109338 191.017111,54.3888048 190.852146,54.3888048 L187.810289,54.3888048 L187.810289,52.2333929 L191.660725,52.2333929 C191.82444,52.2333929 191.963161,52.1222665 191.963161,51.9781323 L191.963161,51.3773896 Z M196.153525,52.2333929 L198.184345,52.2333929 C198.96793,52.2333929 199.636538,52.5447669 199.636538,53.4667859 L199.636538,53.6340256 C199.636538,54.4669234 198.96793,54.8333104 198.184345,54.8333104 L196.153525,54.8333104 L196.153525,52.2333929 Z M196.153525,55.9555769 L197.919401,55.9555769 L199.497818,58.688626 C199.560304,58.7997524 199.661533,58.8888736 199.825248,58.8888736 L200.785045,58.8888736 C200.911269,58.8888736 200.986253,58.8228579 200.986253,58.7117315 C200.986253,58.633613 200.948761,58.5785999 200.898771,58.4894788 L199.257868,55.7553294 C200.468862,55.4340531 201,54.6451657 201,53.6340256 L201,53.3886673 C201,51.8780085 199.86399,51.1111264 198.273077,51.1111264 L195.080002,51.1111264 C194.916286,51.1111264 194.790063,51.2332554 194.790063,51.3773896 L194.790063,58.633613 C194.790063,58.7777472 194.916286,58.8888736 195.080002,58.8888736 L195.849839,58.8888736 C196.013554,58.8888736 196.153525,58.7777472 196.153525,58.633613 L196.153525,55.9555769 Z" id="Fill-1" fill="#FFFFFF"></path>
            <g id="Group-5" transform="translate(0.000000, 23.000000)">
                <mask id="mask-2" fill="white">
                    <use xlink:href="#path-1"></use>
                </mask>
                <g id="Clip-4"></g>
                <path d="M9.22688442,10.0560782 L5.21306533,10.0560782 L7.26582915,4.17213137 L9.22688442,10.0560782 Z M4.19798995,12.964544 L10.1954774,12.964544 L11.1188442,15.6719637 C11.1640704,15.8510774 11.3487437,16.0521234 11.7180905,16.0521234 L14.0246231,16.0521234 C14.3248744,16.0521234 14.5547739,15.8510774 14.5547739,15.5598653 C14.5547739,15.4026839 14.3939698,15.0225241 14.3713568,14.9555088 L9.2959799,0.883505871 C9.22688442,0.682459852 8.99572864,0.391247739 8.60376884,0.391247739 L6.02085427,0.391247739 C5.62889447,0.391247739 5.39773869,0.682459852 5.32864322,0.883505871 L0.115075377,15.1346225 C0.0698492462,15.2686532 -0.000502512563,15.4258346 -0.000502512563,15.5598653 C-0.000502512563,15.8510774 0.230653266,16.0521234 0.530904523,16.0521234 L2.7218593,16.0521234 C2.90653266,16.0521234 3.18291457,15.9619573 3.2758794,15.6488129 L4.19798995,12.964544 Z M27.1213568,0.391247739 C26.7281407,0.391247739 26.4052764,0.704392145 26.4052764,1.08455189 L26.4052764,9.94397982 C26.4052764,12.2480891 25.2520101,13.2326053 23.6150754,13.2326053 C21.9768844,13.2326053 20.8701005,12.2480891 20.8701005,9.94397982 L20.8701005,1.08455189 C20.8701005,0.704392145 20.5472362,0.391247739 20.1540201,0.391247739 L18.2394472,0.391247739 C17.8474874,0.391247739 17.5246231,0.704392145 17.5246231,1.08455189 L17.5246231,9.94397982 C17.5246231,13.8588941 19.970603,16.2751017 23.6150754,16.2751017 C27.2595477,16.2751017 29.7507538,13.8588941 29.7507538,9.94397982 L29.7507538,1.08455189 C29.7507538,0.704392145 29.4278894,0.391247739 29.0359296,0.391247739 L27.1213568,0.391247739 Z M45.1364322,5.17857993 C45.528392,5.17857993 45.8512563,4.86543552 45.8512563,4.48527577 C45.8512563,2.24818188 43.9366834,0.167050965 40.3374372,0.167050965 C36.3701005,0.167050965 34.5246231,1.91188672 34.5246231,4.53035882 C34.5246231,10.481321 42.7595477,8.53422076 42.7595477,11.644951 C42.7595477,12.9864762 42.0221106,13.4568021 40.2231156,13.4568021 C37.7545226,13.4568021 37.5472362,11.800914 37.4542714,11.3756712 C37.3851759,11.1076098 37.1778894,10.7725331 36.7859296,10.7725331 L34.9165829,10.7725331 C34.5246231,10.7725331 34.2017588,11.0856775 34.2017588,11.4658373 C34.2017588,13.5689005 36.0472362,16.2751017 40.2231156,16.2751017 C43.1753769,16.2751017 46.1050251,15.0676072 46.1050251,11.644951 C46.1050251,5.46979204 37.8701005,7.39374152 37.8701005,4.53035882 C37.8701005,3.29971349 38.7922111,2.98656908 40.2922111,2.98656908 C41.7909548,2.98656908 42.2758794,3.81390391 42.5057789,4.55229111 C42.6213568,4.97753391 42.8525126,5.17857993 43.2444724,5.17857993 L45.1364322,5.17857993 Z M57.269598,15.5147823 L59.8298995,5.15664763 L62.4819095,15.5147823 C62.551005,15.7609113 62.7821608,16.0521234 63.1741206,16.0521234 L65.5045226,16.0521234 C65.8964824,16.0521234 66.1263819,15.7609113 66.1954774,15.5147823 L70.1175879,1.35261325 C70.1640704,1.17471798 70.2092965,0.995604258 70.2092965,0.905438165 C70.2092965,0.614226051 69.979397,0.391247739 69.6791457,0.391247739 L67.3952261,0.391247739 C66.8876884,0.391247739 66.7268844,0.793339778 66.6577889,1.08455189 L64.3047739,11.0405945 L61.720603,1.08455189 C61.5824121,0.525278418 61.2595477,0.391247739 60.9831658,0.391247739 L58.7909548,0.391247739 C58.4454774,0.391247739 58.1690955,0.614226051 58.0535176,1.08455189 L55.4932161,11.0405945 L53.1163317,1.08455189 C52.9781407,0.480195372 52.6100503,0.391247739 52.3788945,0.391247739 L50.0484925,0.391247739 C49.7494975,0.391247739 49.5409548,0.614226051 49.5409548,0.905438165 C49.5409548,1.01753655 49.6339196,1.33068096 49.7030151,1.57681002 L53.6238693,15.5147823 C53.7168342,15.8730097 54.0170854,16.0521234 54.3160804,16.0521234 L56.5773869,16.0521234 C56.9693467,16.0521234 57.1992462,15.7609113 57.269598,15.5147823 Z M80.8273869,10.0560782 L76.8135678,10.0560782 L78.8675879,4.17213137 L80.8273869,10.0560782 Z M75.7984925,12.964544 L81.7959799,12.964544 L82.7193467,15.6719637 C82.7658291,15.8510774 82.9505025,16.0521234 83.318593,16.0521234 L85.6251256,16.0521234 C85.9253769,16.0521234 86.1565327,15.8510774 86.1565327,15.5598653 C86.1565327,15.4026839 85.9944724,15.0225241 85.9718593,14.9555088 L80.8964824,0.883505871 C80.8273869,0.682459852 80.5974874,0.391247739 80.2055276,0.391247739 L77.6213568,0.391247739 C77.229397,0.391247739 76.9982412,0.682459852 76.9291457,0.883505871 L71.7168342,15.1346225 C71.6703518,15.2686532 71.6012563,15.4258346 71.6012563,15.5598653 C71.6012563,15.8510774 71.8311558,16.0521234 72.131407,16.0521234 L74.3223618,16.0521234 C74.5070352,16.0521234 74.7846734,15.9619573 74.8763819,15.6488129 L75.7984925,12.964544 Z M99.8060302,16.0521234 L101.651508,16.0521234 C102.043467,16.0521234 102.366332,15.738979 102.366332,15.3588193 L102.366332,1.08455189 C102.366332,0.704392145 102.043467,0.391247739 101.651508,0.391247739 L99.8286432,0.391247739 C99.4366834,0.391247739 99.1138191,0.704392145 99.1138191,1.08455189 L99.1138191,10.2571242 L93.7620603,0.928588918 C93.6464824,0.726324438 93.3236181,0.391247739 92.9316583,0.391247739 L90.4178392,0.391247739 C90.0258794,0.391247739 89.7030151,0.704392145 89.7030151,1.08455189 L89.7030151,15.3588193 C89.7030151,15.738979 90.0258794,16.0521234 90.4178392,16.0521234 L92.2394472,16.0521234 C92.631407,16.0521234 92.9555276,15.738979 92.9555276,15.3588193 L92.9555276,5.37962595 L98.6992462,15.2467209 C99.2055276,16.0972065 99.5522613,16.0521234 99.8060302,16.0521234 Z M113.56608,16.0521234 C117.279648,16.0521234 120.071106,13.411719 120.071106,9.49680473 L120.071106,6.92341568 C120.071106,3.00850138 117.303518,0.391247739 113.56608,0.391247739 L108.538442,0.391247739 C108.145226,0.391247739 107.822362,0.704392145 107.822362,1.08455189 L107.822362,15.3588193 C107.822362,15.738979 108.145226,16.0521234 108.538442,16.0521234 L113.56608,16.0521234 Z M113.56608,3.45567646 C115.250754,3.45567646 116.657789,4.68632179 116.657789,6.96849873 L116.657789,9.49680473 C116.657789,11.7789817 115.250754,12.9864762 113.56608,12.9864762 L111.167839,12.9864762 L111.167839,3.45567646 L113.56608,3.45567646 Z M135.111307,1.08455189 C135.111307,0.704392145 134.788442,0.391247739 134.395226,0.391247739 L125.630151,0.391247739 C125.238191,0.391247739 124.915327,0.704392145 124.915327,1.08455189 L124.915327,15.3588193 C124.915327,15.738979 125.238191,16.0521234 125.630151,16.0521234 L134.395226,16.0521234 C134.788442,16.0521234 135.111307,15.738979 135.111307,15.3588193 L135.111307,13.6809989 C135.111307,13.2996207 134.788442,13.009627 134.395226,13.009627 L128.259548,13.009627 L128.259548,9.63083541 L133.01206,9.63083541 C133.40402,9.63083541 133.726884,9.31769101 133.726884,8.93753126 L133.726884,7.28164314 C133.726884,6.90148339 133.40402,6.58833898 133.01206,6.58833898 L128.259548,6.58833898 L128.259548,3.43374417 L134.395226,3.43374417 C134.788442,3.43374417 135.111307,3.12059976 135.111307,2.74044002 L135.111307,1.08455189 Z M143.184171,3.43374417 L146.483166,3.43374417 C147.567337,3.43374417 148.397739,3.97108535 148.397739,5.37962595 L148.397739,5.69398881 C148.397739,7.05866482 147.567337,7.59478754 146.483166,7.59478754 L143.184171,7.59478754 L143.184171,3.43374417 Z M143.184171,10.637284 L145.652764,10.637284 L148.14397,15.5147823 C148.282161,15.7840621 148.51206,16.0521234 148.90402,16.0521234 L151.234422,16.0521234 C151.534673,16.0521234 151.74196,15.8510774 151.74196,15.5598653 C151.74196,15.3356685 151.626382,15.1565548 151.510804,14.9335765 L148.881407,10.0560782 C150.934171,9.36277405 151.74196,7.84091661 151.74196,5.76100415 L151.74196,5.08963229 C151.74196,1.95696977 149.596231,0.391247739 146.759548,0.391247739 L140.554774,0.391247739 C140.162814,0.391247739 139.838693,0.704392145 139.838693,1.08455189 L139.838693,15.3588193 C139.838693,15.738979 140.162814,16.0521234 140.554774,16.0521234 L142.469347,16.0521234 C142.861307,16.0521234 143.184171,15.738979 143.184171,15.3588193 L143.184171,10.637284 Z M166.666583,1.08455189 C166.666583,0.704392145 166.342462,0.391247739 165.950503,0.391247739 L157.185427,0.391247739 C156.793467,0.391247739 156.470603,0.704392145 156.470603,1.08455189 L156.470603,15.3588193 C156.470603,15.738979 156.793467,16.0521234 157.185427,16.0521234 L165.950503,16.0521234 C166.342462,16.0521234 166.666583,15.738979 166.666583,15.3588193 L166.666583,13.6809989 C166.666583,13.2996207 166.342462,13.009627 165.950503,13.009627 L159.814824,13.009627 L159.814824,9.63083541 L164.567337,9.63083541 C164.959296,9.63083541 165.282161,9.31769101 165.282161,8.93753126 L165.282161,7.28164314 C165.282161,6.90148339 164.959296,6.58833898 164.567337,6.58833898 L159.814824,6.58833898 L159.814824,3.43374417 L165.950503,3.43374417 C166.342462,3.43374417 166.666583,3.12059976 166.666583,2.74044002 L166.666583,1.08455189 Z M174.739447,3.43374417 L178.037186,3.43374417 C179.121357,3.43374417 179.951759,3.97108535 179.951759,5.37962595 L179.951759,5.69398881 C179.951759,7.05866482 179.121357,7.59478754 178.037186,7.59478754 L174.739447,7.59478754 L174.739447,3.43374417 Z M174.739447,10.637284 L177.206784,10.637284 L179.69799,15.5147823 C179.837437,15.7840621 180.067337,16.0521234 180.459296,16.0521234 L182.789698,16.0521234 C183.08995,16.0521234 183.297236,15.8510774 183.297236,15.5598653 C183.297236,15.3356685 183.181658,15.1565548 183.06608,14.9335765 L180.436683,10.0560782 C182.489447,9.36277405 183.297236,7.84091661 183.297236,5.76100415 L183.297236,5.08963229 C183.297236,1.95696977 181.151508,0.391247739 178.314824,0.391247739 L172.108794,0.391247739 C171.716834,0.391247739 171.39397,0.704392145 171.39397,1.08455189 L171.39397,15.3588193 C171.39397,15.738979 171.716834,16.0521234 172.108794,16.0521234 L174.023367,16.0521234 C174.416583,16.0521234 174.739447,15.738979 174.739447,15.3588193 L174.739447,10.637284 Z M199.466834,16.0521234 C199.858794,16.0521234 200.181658,15.738979 200.181658,15.3588193 L200.181658,1.08455189 C200.181658,0.704392145 199.858794,0.391247739 199.466834,0.391247739 L197.552261,0.391247739 C197.160302,0.391247739 196.837437,0.704392145 196.837437,1.08455189 L196.837437,6.67728662 L191.370101,6.67728662 L191.370101,1.08455189 C191.370101,0.704392145 191.047236,0.391247739 190.655276,0.391247739 L188.740704,0.391247739 C188.348744,0.391247739 188.025879,0.704392145 188.025879,1.08455189 L188.025879,15.3588193 C188.025879,15.738979 188.348744,16.0521234 188.740704,16.0521234 L190.655276,16.0521234 C191.047236,16.0521234 191.370101,15.738979 191.370101,15.3588193 L191.370101,9.72100151 L196.837437,9.72100151 L196.837437,15.3588193 C196.837437,15.738979 197.160302,16.0521234 197.552261,16.0521234 L199.466834,16.0521234 Z M212.954271,10.0560782 L208.941709,10.0560782 L210.994472,4.17213137 L212.954271,10.0560782 Z M207.926633,12.964544 L213.924121,12.964544 L214.846231,15.6719637 C214.892714,15.8510774 215.077387,16.0521234 215.446734,16.0521234 L217.753266,16.0521234 C218.052261,16.0521234 218.283417,15.8510774 218.283417,15.5598653 C218.283417,15.4026839 218.121357,15.0225241 218.098744,14.9555088 L213.024623,0.883505871 C212.954271,0.682459852 212.724372,0.391247739 212.332412,0.391247739 L209.748241,0.391247739 C209.356281,0.391247739 209.125126,0.682459852 209.05603,0.883505871 L203.843719,15.1346225 C203.797236,15.2686532 203.728141,15.4258346 203.728141,15.5598653 C203.728141,15.8510774 203.959296,16.0521234 204.258291,16.0521234 L206.450503,16.0521234 C206.63392,16.0521234 206.911558,15.9619573 207.003266,15.6488129 L207.926633,12.964544 Z M230.848744,0.391247739 C230.456784,0.391247739 230.13392,0.704392145 230.13392,1.08455189 L230.13392,9.94397982 C230.13392,12.2480891 228.980653,13.2326053 227.342462,13.2326053 C225.704271,13.2326053 224.597487,12.2480891 224.597487,9.94397982 L224.597487,1.08455189 C224.597487,0.704392145 224.274623,0.391247739 223.882663,0.391247739 L221.96809,0.391247739 C221.576131,0.391247739 221.253266,0.704392145 221.253266,1.08455189 L221.253266,9.94397982 C221.253266,13.8588941 223.69799,16.2751017 227.342462,16.2751017 C230.986935,16.2751017 233.478141,13.8588941 233.478141,9.94397982 L233.478141,1.08455189 C233.478141,0.704392145 233.155276,0.391247739 232.763317,0.391247739 L230.848744,0.391247739 Z M248.863819,5.17857993 C249.255779,5.17857993 249.578643,4.86543552 249.578643,4.48527577 C249.578643,2.24818188 247.66407,0.167050965 244.06608,0.167050965 C240.098744,0.167050965 238.253266,1.91188672 238.253266,4.53035882 C238.253266,10.481321 246.488191,8.53422076 246.488191,11.644951 C246.488191,12.9864762 245.749497,13.4568021 243.950503,13.4568021 C241.48191,13.4568021 241.274623,11.800914 241.182915,11.3756712 C241.113819,11.1076098 240.905276,10.7725331 240.513317,10.7725331 L238.645226,10.7725331 C238.253266,10.7725331 237.930402,11.0856775 237.930402,11.4658373 C237.930402,13.5689005 239.775879,16.2751017 243.950503,16.2751017 C246.902764,16.2751017 249.832412,15.0676072 249.832412,11.644951 C249.832412,5.46979204 241.597487,7.39374152 241.597487,4.53035882 C241.597487,3.29971349 242.520854,2.98656908 244.019598,2.98656908 C245.519598,2.98656908 246.003266,3.81390391 246.234422,4.55229111 C246.35,4.97753391 246.579899,5.17857993 246.971859,5.17857993 L248.863819,5.17857993 Z" id="Fill-3" fill="#FFFFFF" mask="url(#mask-2)"></path>
            </g>
            <path d="M6.7442856,16.7634067 C10.45822,16.7634067 13.2499529,13.9770063 13.2499529,9.84562439 L13.2499529,7.13123062 C13.2499529,2.99856289 10.4820917,0.236593299 6.7442856,0.236593299 L1.71489469,0.236593299 C1.32289619,0.236593299 1,0.567052417 1,0.968232358 L1,16.0317676 C1,16.4329476 1.32289619,16.7634067 1.71489469,16.7634067 L6.7442856,16.7634067 Z M6.7442856,3.47174949 C8.42786887,3.47174949 9.83504294,4.76915513 9.83504294,7.17752061 L9.83504294,9.84562439 C9.83504294,12.2539899 8.42786887,13.5282505 6.7442856,13.5282505 L4.34455124,13.5282505 L4.34455124,3.47174949 L6.7442856,3.47174949 Z M28.2903822,0.968232358 C28.2903822,0.567052417 27.967486,0.236593299 27.5754875,0.236593299 L18.8095469,0.236593299 C18.4175484,0.236593299 18.0946522,0.567052417 18.0946522,0.968232358 L18.0946522,16.0317676 C18.0946522,16.4329476 18.4175484,16.7634067 18.8095469,16.7634067 L27.5754875,16.7634067 C27.967486,16.7634067 28.2903822,16.4329476 28.2903822,16.0317676 L28.2903822,14.2611754 C28.2903822,13.8599955 27.967486,13.5526813 27.5754875,13.5526813 L21.4392034,13.5526813 L21.4392034,9.98706603 L26.1921852,9.98706603 C26.5841837,9.98706603 26.9070798,9.65660691 26.9070798,9.25542697 L26.9070798,7.50797973 C26.9070798,7.10679979 26.5841837,6.77634067 26.1921852,6.77634067 L21.4392034,6.77634067 L21.4392034,3.44731866 L27.5754875,3.44731866 C27.967486,3.44731866 28.2903822,3.11685954 28.2903822,2.7156796 L28.2903822,0.968232358 Z M42.3859947,0.236593299 C41.9939962,0.236593299 41.6711,0.567052417 41.6711,0.968232358 L41.6711,10.3175251 C41.6711,12.7503215 40.5177198,13.7879888 38.8793671,13.7879888 C37.2410145,13.7879888 36.1341213,12.7503215 36.1341213,10.3175251 L36.1341213,0.968232358 C36.1341213,0.567052417 35.8112251,0.236593299 35.4192266,0.236593299 L33.5044647,0.236593299 C33.1124662,0.236593299 32.78957,0.567052417 32.78957,0.968232358 L32.78957,10.3175251 C32.78957,14.4501929 35.234535,17 38.8793671,17 C42.5241993,17 45.0156512,14.4501929 45.0156512,10.3175251 L45.0156512,0.968232358 C45.0156512,0.567052417 44.692755,0.236593299 44.3007565,0.236593299 L42.3859947,0.236593299 Z M48.9368926,2.7156796 C48.9368926,3.11685954 49.2597887,3.44731866 49.6517872,3.44731866 L53.481311,3.44731866 L53.481311,16.0317676 C53.481311,16.4329476 53.8042072,16.7634067 54.1974621,16.7634067 L56.1122239,16.7634067 C56.5042224,16.7634067 56.8271186,16.4329476 56.8271186,16.0317676 L56.8271186,3.44731866 L60.6566423,3.44731866 C61.0486408,3.44731866 61.371537,3.11685954 61.371537,2.7156796 L61.371537,0.968232358 C61.371537,0.567052417 61.0486408,0.236593299 60.6566423,0.236593299 L49.6517872,0.236593299 C49.2597887,0.236593299 48.9368926,0.567052417 48.9368926,0.968232358 L48.9368926,2.7156796 Z M75.3025604,5.28863172 C75.6945589,5.28863172 76.0174551,4.9581726 76.0174551,4.55699266 C76.0174551,2.19620301 74.1026932,0 70.5043481,0 C66.5366197,0 64.6909602,1.8425989 64.6909602,4.60456849 C64.6909602,10.8845776 72.9266977,8.83110203 72.9266977,12.1125482 C72.9266977,13.5282505 72.1879313,14.0245821 70.3887588,14.0245821 C67.9199221,14.0245821 67.7126152,12.2771349 67.6208976,11.8283791 C67.5505389,11.5454958 67.343232,11.1918917 66.9512335,11.1918917 L65.0829587,11.1918917 C64.6909602,11.1918917 64.368064,11.5223508 64.368064,11.9235307 C64.368064,14.1428788 66.2124671,17 70.3887588,17 C73.3413115,17 76.271249,15.7244535 76.271249,12.1125482 C76.271249,5.59594584 68.0355114,7.62627638 68.0355114,4.60456849 C68.0355114,3.30587701 68.9589694,2.9754179 70.4578611,2.9754179 C71.9567527,2.9754179 72.4417252,3.8484986 72.6729038,4.62771349 C72.7872367,5.07646925 73.0184153,5.28863172 73.4104138,5.28863172 L75.3025604,5.28863172 Z M90.0992471,10.8614326 C89.6381463,10.8614326 89.5464287,11.2381817 89.4999417,11.5930716 C89.3843524,12.7258906 88.5538684,13.7879888 86.8702851,13.7879888 C85.1854454,13.7879888 83.8247584,12.5137282 83.8247584,10.0822177 L83.8247584,6.96535814 C83.8247584,4.53384767 85.1854454,3.21201119 86.8702851,3.21201119 C88.5538684,3.21201119 89.3152501,4.36797519 89.4999417,5.50208002 C89.569044,5.97398079 89.8228379,6.13856743 90.0766318,6.13856743 L92.4298791,6.13856743 C92.7753906,6.13856743 92.9600822,5.90325997 92.9374669,5.54837002 C92.7527753,2.6925346 90.5616043,0 86.8702851,0 C83.178966,0 80.4802071,2.78640042 80.4802071,6.91778232 L80.4802071,10.0822177 C80.4802071,14.2135996 83.178966,17 86.8702851,17 C90.5616043,17 92.7753906,14.2135996 92.9839539,11.4271992 C93.0065692,11.1674609 92.7992623,10.8614326 92.4763661,10.8614326 L90.0992471,10.8614326 Z M108.852354,16.7634067 C109.244353,16.7634067 109.567249,16.4329476 109.567249,16.0317676 L109.567249,0.968232358 C109.567249,0.567052417 109.244353,0.236593299 108.852354,0.236593299 L106.937593,0.236593299 C106.545594,0.236593299 106.222698,0.567052417 106.222698,0.968232358 L106.222698,6.87149232 L100.754821,6.87149232 L100.754821,0.968232358 C100.754821,0.567052417 100.431925,0.236593299 100.039927,0.236593299 L98.1251649,0.236593299 C97.7331664,0.236593299 97.4090138,0.567052417 97.4090138,0.968232358 L97.4090138,16.0317676 C97.4090138,16.4329476 97.7331664,16.7634067 98.1251649,16.7634067 L100.039927,16.7634067 C100.431925,16.7634067 100.754821,16.4329476 100.754821,16.0317676 L100.754821,10.0822177 L106.222698,10.0822177 L106.222698,16.0317676 C106.222698,16.4329476 106.545594,16.7634067 106.937593,16.7634067 L108.852354,16.7634067 Z M125.220804,0.968232358 C125.220804,0.567052417 124.897908,0.236593299 124.50591,0.236593299 L115.738713,0.236593299 C115.346714,0.236593299 115.023818,0.567052417 115.023818,0.968232358 L115.023818,16.0317676 C115.023818,16.4329476 115.346714,16.7634067 115.738713,16.7634067 L124.50591,16.7634067 C124.897908,16.7634067 125.220804,16.4329476 125.220804,16.0317676 L125.220804,14.2611754 C125.220804,13.8599955 124.897908,13.5526813 124.50591,13.5526813 L118.369626,13.5526813 L118.369626,9.98706603 L123.121351,9.98706603 C123.513349,9.98706603 123.836246,9.65660691 123.836246,9.25542697 L123.836246,7.50797973 C123.836246,7.10679979 123.513349,6.77634067 123.121351,6.77634067 L118.369626,6.77634067 L118.369626,3.44731866 L124.50591,3.44731866 C124.897908,3.44731866 125.220804,3.11685954 125.220804,2.7156796 L125.220804,0.968232358 Z M140.031311,5.28863172 C140.42331,5.28863172 140.746206,4.9581726 140.746206,4.55699266 C140.746206,2.19620301 138.831444,0 135.233099,0 C131.264114,0 129.418455,1.8425989 129.418455,4.60456849 C129.418455,10.8845776 137.655449,8.83110203 137.655449,12.1125482 C137.655449,13.5282505 136.916682,14.0245821 135.11751,14.0245821 C132.648673,14.0245821 132.441366,12.2771349 132.348392,11.8283791 C132.27929,11.5454958 132.071983,11.1918917 131.679985,11.1918917 L129.81171,11.1918917 C129.418455,11.1918917 129.095559,11.5223508 129.095559,11.9235307 C129.095559,14.1428788 130.941218,17 135.11751,17 C138.070063,17 141,15.7244535 141,12.1125482 C141,5.59594584 132.764262,7.62627638 132.764262,4.60456849 C132.764262,3.30587701 133.686464,2.9754179 135.186612,2.9754179 C136.685504,2.9754179 137.170476,3.8484986 137.401655,4.62771349 C137.515988,5.07646925 137.747166,5.28863172 138.139165,5.28863172 L140.031311,5.28863172 Z" id="Fill-6" fill="#FFFFFF"></path>
        </g>
    </g>
</svg>