<svg id="Gruppe_9" data-name="Gruppe 9" xmlns="http://www.w3.org/2000/svg" xmlns:xlink="http://www.w3.org/1999/xlink" viewBox="131 108 124.414 124.414">
  <defs>
    <style>
      .cls-1 {
        fill: none;
      }

      .cls-2 {
        fill: #ffe033;
      }

      .cls-3 {
        clip-path: url(#clip-path);
      }

      .cls-4 {
        fill: #2b2e34;
      }
    </style>
    <clipPath id="clip-path">
      <path id="Pfad_3" data-name="Pfad 3" class="cls-1" d="M0-49.154H107.858V-90.311H0Z" transform="translate(0 90.311)"/>
    </clipPath>
  </defs>
  <circle id="Ellipse_1" data-name="Ellipse 1" class="cls-2" cx="62.207" cy="62.207" r="62.207" transform="translate(131 108)"/>
  <g id="Gruppe_4" data-name="Gruppe 4" transform="translate(141.482 149.471)">
    <g id="Gruppe_3" data-name="Gruppe 3" class="cls-3" transform="translate(0 0)">
      <g id="Gruppe_1" data-name="Gruppe 1" transform="translate(0 3.649)">
        <path id="Pfad_1" data-name="Pfad 1" class="cls-4" d="M-55.406-10.331c0-2.047,1.139-3.165,2.722-3.165s2.7,1.118,2.7,3.165v1.793c0,2.068-1.118,3.165-2.7,3.165s-2.722-1.1-2.722-3.165Zm-1.582,1.709c0,2.954,1.857,4.663,4.3,4.663,2.426,0,4.3-1.709,4.3-4.663v-1.6c0-2.954-1.878-4.7-4.3-4.7-2.447,0-4.3,1.751-4.3,4.7ZM-60.2-4.171a.338.338,0,0,0,.359-.338V-14.34a.374.374,0,0,0-.359-.38h-.886a.361.361,0,0,0-.359.38v9.831a.327.327,0,0,0,.359.338Zm-.443-12.659a1.029,1.029,0,0,0,1.076-1.076,1.03,1.03,0,0,0-1.076-1.076,1.03,1.03,0,0,0-1.076,1.076,1.03,1.03,0,0,0,1.076,1.076M-66.4-4.508a.321.321,0,0,0,.337.338h.886a.345.345,0,0,0,.38-.338V-18.559a.378.378,0,0,0-.38-.38h-.886a.358.358,0,0,0-.337.38v5.19a3.387,3.387,0,0,0-3.038-1.561c-2.342,0-3.988,1.667-3.988,4.7v1.561c0,3.06,1.667,4.705,3.988,4.705A3.385,3.385,0,0,0-66.4-5.5Zm0-4.03c0,1.962-1.076,3.165-2.743,3.165s-2.7-1.2-2.7-3.165v-1.793c0-1.941,1.034-3.165,2.722-3.165,1.624,0,2.722,1.16,2.722,3.038Zm-11.013-6.182a.361.361,0,0,0-.359.38v5.8c0,2.068-1.034,3.165-2.594,3.165-1.582,0-2.427-1.1-2.427-3.165v-5.8a.374.374,0,0,0-.359-.38h-.886a.361.361,0,0,0-.359.38v5.718c0,2.954,1.287,4.663,3.713,4.663a3.157,3.157,0,0,0,2.911-1.477v.928a.327.327,0,0,0,.359.338h.886a.338.338,0,0,0,.359-.338V-14.34a.375.375,0,0,0-.359-.38ZM-86.9-4.171a.327.327,0,0,0,.359-.338v-.759a.361.361,0,0,0-.359-.38h-.422c-1.751,0-1.961-.507-1.961-2.384v-5.232H-86.9a.344.344,0,0,0,.359-.359v-.718a.361.361,0,0,0-.359-.38h-2.383v-2.363a.361.361,0,0,0-.359-.38h-.844a.345.345,0,0,0-.337.38v.781c0,1.329-.549,1.582-1.667,1.582a.345.345,0,0,0-.338.38v.718a.327.327,0,0,0,.338.359h1.624v5.379c0,2.469.485,3.713,3.376,3.713Zm-13.165-7.87c0-1.181,1.16-1.5,2.11-1.5,1.857,0,2.215.907,2.363,1.562.042.19.105.274.3.274h.907a.284.284,0,0,0,.3-.274v-.148c-.169-.57-.57-2.806-3.819-2.806-1.793,0-3.713.8-3.713,2.933,0,4.43,6.223,2.258,6.223,4.979,0,1.266-1.034,1.688-2.383,1.688A2.342,2.342,0,0,1-100.3-7a.275.275,0,0,0-.317-.253h-.886a.277.277,0,0,0-.274.211.868.868,0,0,0-.021.232c.211,1.456,1.582,2.849,3.987,2.849,2.152,0,3.966-.823,3.966-3.081,0-4.3-6.223-2.131-6.223-5" transform="translate(101.799 18.981)"/>
      </g>
      <g id="Gruppe_2" data-name="Gruppe 2" transform="translate(0.379 0)">
        <path id="Pfad_2" data-name="Pfad 2" class="cls-4" d="M-128.292-25.457c-.077-.069-.2-.211-.243-.243-.005-.01-.085-.089-.1-.1-.072-.07-.636-.55-.738-.625-.35-.254-.679-.488-.893-.672-.088-.158-.264-.292-.22-.3s1.035.625,1.41.851a.466.466,0,0,0,.137.006c.105.012-1.021-.705-1.107-.821a4.131,4.131,0,0,0-.494-.37c-.65-.517-1.8-1.127-2.52-1.658-.086-.064-.185-.118-.2-.2.007-.048.2.017.278.041.291.171.44.275.922.555.179.089.34.1.345.036a.55.55,0,0,0-.137-.167c-1.148-1.091-2.464-2.014-3.624-3.092-.139-.134-.266-.24-.259-.394,0-.08.757.219.942.134.032-.018.09-.015.1-.066,0-.206.19-.212-.184-.713a8.8,8.8,0,0,0-1.378-1.066c-.218-.182-.616-.338-.6-.525.125-.052.415.24.5.058a.276.276,0,0,0-.009-.1c-2.538-2.4-4.792-3.144-7.173-4.587-.957-.58-1.609-1.092-2.959-1.883-.924-.541-1.857-.967-3.228-1.614-.108-.051-.293-.166-.283-.253.158-.06.179-.068.126-.179-.016-.035-.11-.057-.149-.082-4.462-1.041-9.2-3.512-15.832-3.251a7.589,7.589,0,0,0-4.222,3.295c-.273.623-.185,1.8-.4,2.435a7.44,7.44,0,0,1-.379.894c-.706,1.425-1.693,2.57-1.72,4.674a5.257,5.257,0,0,0,.809-.844,1.284,1.284,0,0,0,1.325,1.081,1.434,1.434,0,0,0,.86-.269c-.062.182-.123.355-.181.507,1.349-.612,1.715-2.558,2.472-3.762a3.225,3.225,0,0,1,.362-.479,7.49,7.49,0,0,1,3.679.941,11.045,11.045,0,0,1,2.777,2.287c.81.888,1.3,2.3,2.152,3.228a23.722,23.722,0,0,0,2.42,2.152,18.88,18.88,0,0,1,3.1,2.614c.288,1.09,1.379,1.906,1.5,2.647a5.124,5.124,0,0,1-1.536,2.332c-.134.143-1.1.518-1.207.6-.3.233-.578.554-.781.679-.447.275-1.076.408-1.633.665-.328.353-.618,1.153-.964,1.632v-.646a.513.513,0,0,0-.506-.506h-1.287a.5.5,0,0,0-.485.506v9.557a.477.477,0,0,0,.485.485h1.287a.5.5,0,0,0,.506-.485v-5.718c0-1.688.928-2.616,2.236-2.616s2.236.928,2.236,2.616v5.718a.478.478,0,0,0,.485.485h1.287a.5.5,0,0,0,.506-.485v-5.464a5.322,5.322,0,0,0-1.226-3.761c-.08-.167-.174-.339-.262-.514a1.92,1.92,0,0,1-.165-.621.8.8,0,0,1,.269-.417c.227-.17.52-.378.755-.535,1.659-1.111,2.88-2.263,4.368-3.473.134-.109.468-.149.606-.252.189-.14.313-.214.376-.458a5.024,5.024,0,0,1,.062-1.4c1.626-1.194,3.852.163,5.858,1.113a12.341,12.341,0,0,1,2.064,1.15,11.091,11.091,0,0,0,2.014,1.014l.029.027c1.117,1.25,2.517,2.8,2.758,2.992a2.487,2.487,0,0,0,.6.361c.09.037.106.052.179.025.064-.064.092-.2.268-.279a1.066,1.066,0,0,1,.162.14,7.65,7.65,0,0,0,1.615,1.055,1.36,1.36,0,0,0,.844-.005.57.57,0,0,0,.185-.087.139.139,0,0,0-.021-.16c-.178-.241-.352-.353-.772-.905l-.285-.381c.021-.041.039-.033.072,0,.054.047.118.088.171.127a4.621,4.621,0,0,0,.8.535c.185-.01.414-.037.369-.176-.067-.2-.253-.433-.091-.484.041-.013.082.013.1-.009a.647.647,0,0,0-.037-.1c-.093-.206-.278-.418-.346-.612a10.145,10.145,0,0,0-.768-1.1,18.651,18.651,0,0,0-2.949-3.826c-.058-.057-.148-.137-.15-.222.025-.043.051.01.174.034,0,0,.278.064.353.088a.555.555,0,0,0,.415.041c.024-.085-.049-.183-.12-.242a13.858,13.858,0,0,0-2.337-1.838c-.017-.01-.115-.07-.126-.075.017,0-.026-.04-.008-.038a2.61,2.61,0,0,1,.411.075,6.413,6.413,0,0,1,1.172.5,25.53,25.53,0,0,1,3.915,2.553c.109.088.251.186.373.3.079.037.155.038.3.083.185.166.647.591.428.294m-40.861-11.624a1.313,1.313,0,0,0-1.311-.9h-.012a3.558,3.558,0,0,1,1.374-.971,3.373,3.373,0,0,1-.051,1.872M-148.5-25.8a9.288,9.288,0,0,1-2.075,1.888c-.042.021-.1.04-.137,0a14.781,14.781,0,0,0,.669-1.416c.212-.46.3-.268.319-.607.1-.211.247-.263.257-.484a9.638,9.638,0,0,0-.082-1.091.223.223,0,0,1,.1-.247c.16.1.263.143.334.3.222.5.263.808.613,1.652M-173.561-10.53v-9.557a.513.513,0,0,0-.507-.506h-1.287a.5.5,0,0,0-.486.506v9.557a.478.478,0,0,0,.486.485h1.287a.5.5,0,0,0,.507-.485m-4.557,0v-1.076a.5.5,0,0,0-.507-.485h-.717c-1.266,0-1.414-.443-1.414-1.646V-18.59h2.131a.5.5,0,0,0,.507-.485v-1.013a.513.513,0,0,0-.507-.506h-2.131V-22.83a.5.5,0,0,0-.485-.506h-1.245a.5.5,0,0,0-.485.506v.928c0,1.076-.422,1.308-1.455,1.308a.5.5,0,0,0-.486.506v1.013a.477.477,0,0,0,.486.485h1.434v5.169c0,2.173.738,3.376,3.27,3.376h1.1a.5.5,0,0,0,.507-.485m-8.081,0v-6.16c0-2-.612-4.114-4.177-4.114-3,0-3.629,1.709-3.861,2.827a.727.727,0,0,0-.042.274.36.36,0,0,0,.379.359h1.33a.377.377,0,0,0,.4-.316c.148-.633.443-1.2,1.793-1.2,1.561,0,2.068.844,2.068,2.11v.549H-190.5c-1.455,0-4.24.232-4.24,3.186,0,2.342,1.646,3.186,3.418,3.186h.338a2.928,2.928,0,0,0,2.679-1.393v.7a.477.477,0,0,0,.485.485h1.118a.5.5,0,0,0,.507-.485m-2.11-3.5c0,1.16-.274,2.405-2.237,2.405h-.337c-.865,0-1.73-.317-1.73-1.393,0-1.224.844-1.519,2.194-1.519h2.11Zm-7.617-4.789v-1.266a.513.513,0,0,0-.506-.506h-.274a3.168,3.168,0,0,0-2.806,1.582v-1.076a.5.5,0,0,0-.485-.506h-1.182a.5.5,0,0,0-.485.506v9.557a.477.477,0,0,0,.485.485h1.266a.5.5,0,0,0,.507-.485V-15.3c0-1.983.907-3.037,2.679-3.037h.3a.5.5,0,0,0,.506-.486m-15.021,5.992a.745.745,0,0,1,.844-.759h2.047c2.363,0,4.008-1.266,4.008-3.587V-21.5a.477.477,0,0,0-.485-.485h-1.055a.482.482,0,0,0-.506.485v1.371a3.662,3.662,0,0,0-2.152-.675h-.527c-2.384,0-4.03,1.392-4.03,3.629a2.884,2.884,0,0,0,1.35,2.574,1.687,1.687,0,0,0-1.435,1.73,1.651,1.651,0,0,0,.97,1.6,2.55,2.55,0,0,0-1.434,2.426c0,1.773,1.308,3.228,3.713,3.228h2.448c2.363,0,3.692-1.435,3.692-3.228s-1.329-3.249-3.692-3.249h-2.722c-.718,0-1.034-.211-1.034-.738m.253-4.346a1.808,1.808,0,0,1,1.983-1.857h.57a1.8,1.8,0,0,1,1.983,1.857,1.8,1.8,0,0,1-1.983,1.836h-.57a1.782,1.782,0,0,1-1.983-1.836m1.413,6.815h1.667c1.456,0,1.983.59,1.983,1.518,0,.907-.527,1.477-1.983,1.477h-1.667c-1.435,0-1.941-.57-1.941-1.477,0-.928.506-1.518,1.941-1.518m-6.034-13.187a1.329,1.329,0,0,0-1.392-1.392,1.307,1.307,0,0,0-1.35,1.392,1.3,1.3,0,0,0,1.35,1.372,1.324,1.324,0,0,0,1.392-1.372m-5.3,13.017V-15.7c0-3.038-.612-5.106-3.713-5.106a3.7,3.7,0,0,0-3.27,1.709,3.351,3.351,0,0,0-3.1-1.709,3.058,3.058,0,0,0-2.743,1.413v-.7a.513.513,0,0,0-.506-.506h-1.287a.5.5,0,0,0-.485.506v9.557a.478.478,0,0,0,.485.485h1.287a.5.5,0,0,0,.506-.485v-5.38c0-1.709.338-2.954,2.131-2.954,1.646,0,2,1.034,2,2.954v5.38a.477.477,0,0,0,.485.485h1.308a.491.491,0,0,0,.485-.485v-5.38c0-1.814.422-2.954,2.131-2.954s2,1.139,2,2.954v5.38a.478.478,0,0,0,.485.485h1.287a.5.5,0,0,0,.506-.485m2.785-9.557v9.557a.478.478,0,0,0,.485.485h1.287a.5.5,0,0,0,.506-.485v-9.557a.513.513,0,0,0-.506-.506h-1.287a.5.5,0,0,0-.485.506m46.689,4.093v1.372A4.469,4.469,0,0,0-166.6-9.834a4.474,4.474,0,0,0,4.558-4.789v-1.372A4.491,4.491,0,0,0-166.6-20.8a4.486,4.486,0,0,0-4.535,4.81m2.278-.253c0-1.688.97-2.616,2.257-2.616,1.329,0,2.279.928,2.279,2.616v1.878c0,1.688-.949,2.616-2.279,2.616-1.287,0-2.257-.928-2.257-2.616Z" transform="translate(235.714 46.772)"/>
      </g>
    </g>
  </g>
</svg>
