<svg xmlns="http://www.w3.org/2000/svg" viewBox="1767 229 449.675 171.59">
  <g id="Gruppe_2" data-name="Gruppe 2" transform="translate(419 -118)">
    <path id="Vereinigungsmenge_2" data-name="Vereinigungsmenge 2" d="M108.715,171.59c-10.027,0-15.48-6.069-15.48-13.458,0-4.661,2.111-8.181,5.98-10.115a6.879,6.879,0,0,1-4.045-6.685c0-3.43,1.847-6.243,5.98-7.213a12.025,12.025,0,0,1-5.63-10.732c0-9.322,6.862-15.127,16.8-15.127h2.2a15.257,15.257,0,0,1,8.971,2.815v-5.719a2.013,2.013,0,0,1,2.111-2.022H130a1.991,1.991,0,0,1,2.024,2.022v18.031c0,9.677-6.862,14.955-16.712,14.955h-8.533c-2.111,0-3.519,1.142-3.519,3.165,0,2.2,1.32,3.078,4.311,3.078H118.92c9.851,0,15.392,6.069,15.392,13.546S128.77,171.59,118.92,171.59Zm-6.6-13.458c0,3.784,2.111,6.157,8.092,6.157h6.95c6.069,0,8.267-2.373,8.267-6.157,0-3.87-2.2-6.332-8.267-6.332h-6.95C104.229,151.8,102.118,154.263,102.118,158.133Zm2.2-34.744c0,4.575,3.078,7.655,8.267,7.655h2.376c5.1,0,8.18-3.08,8.268-7.655,0-4.486-2.99-7.739-8.268-7.739h-2.376C107.4,115.649,104.318,118.9,104.318,123.388ZM269.24,134.033v-5.719c0-12.315,8.356-20.054,18.909-20.054,10.643,0,19,7.739,19,20.054v5.719c0,12.313-8.357,19.965-19,19.965C277.6,154,269.24,146.346,269.24,134.033Zm9.5-6.774v7.83c0,7.036,4.046,10.905,9.41,10.905,5.543,0,9.5-3.869,9.5-10.905v-7.83c0-7.036-3.956-10.906-9.5-10.906C282.784,116.353,278.738,120.223,278.738,127.259ZM185.064,154c-7.389,0-14.249-3.517-14.249-13.282,0-12.312,11.61-13.28,17.677-13.28h9.149v-2.288c0-5.277-2.111-8.795-8.619-8.795-5.631,0-6.862,2.374-7.477,5.014a1.575,1.575,0,0,1-1.67,1.319h-5.543a1.5,1.5,0,0,1-1.581-1.495,3.032,3.032,0,0,1,.175-1.144c.967-4.66,3.606-11.786,16.1-11.786,14.864,0,17.416,8.8,17.416,17.152V151.1a2.066,2.066,0,0,1-2.112,2.022h-4.663a1.99,1.99,0,0,1-2.021-2.022v-2.9c-1.848,3.783-6.509,5.8-11.171,5.8ZM179.7,140.716c0,4.487,3.607,5.807,7.214,5.807h1.407c8.181,0,9.324-5.19,9.324-10.027v-2.111h-8.8C183.217,134.384,179.7,135.615,179.7,140.716Zm167.3,12.4a1.991,1.991,0,0,1-2.025-2.022V127.259c0-7.036-3.871-10.906-9.323-10.906s-9.323,3.87-9.323,10.906V151.1a2.065,2.065,0,0,1-2.111,2.022h-5.366a1.989,1.989,0,0,1-2.023-2.022V111.252a2.064,2.064,0,0,1,2.023-2.111h5.366a2.14,2.14,0,0,1,2.111,2.111v2.714c1.442-1.993,2.651-5.354,4.018-6.825,2.323-1.072,4.945-1.626,6.808-2.773.846-.52,1.987-1.858,3.257-2.831.466-.357,4.478-1.922,5.033-2.516,1.6-1.716,5.375-5.033,6.4-9.722-.515-3.088-5.061-6.491-6.262-11.037-3.632-4.532-9.591-8.2-12.918-10.9a98.913,98.913,0,0,1-10.093-8.971c-3.543-3.871-5.592-9.757-8.97-13.457A46.068,46.068,0,0,0,302.023,35.4a31.243,31.243,0,0,0-15.338-3.921,13.427,13.427,0,0,0-1.509,1.994c-3.158,5.019-4.685,13.129-10.308,15.682.237-.628.49-1.328.745-2.079a6.029,6.029,0,0,1-3.578,1.088,5.35,5.35,0,0,1-5.521-4.492,21.875,21.875,0,0,1-3.377,3.506c.115-8.77,4.227-13.542,7.171-19.483a31.169,31.169,0,0,0,1.579-3.728c.908-2.642.544-7.552,1.682-10.151,6.012-8.369,11.454-12.024,17.6-13.736,27.629-1.09,47.4,9.215,66.006,13.554.164.107.554.2.624.341.221.464.132.5-.526.748-.046.365.727.843,1.179,1.056,5.716,2.7,9.606,4.474,13.457,6.728,5.628,3.3,8.346,5.432,12.335,7.85,9.928,6.018,19.325,9.105,29.905,19.123a1.189,1.189,0,0,1,.04.431c-.2.438-.688.214-1.166-.009-.347-.163-.689-.326-.907-.234-.059.779,1.6,1.43,2.51,2.19A36.611,36.611,0,0,1,420.37,56.3c1.558,2.087.768,2.114.768,2.972-.029.214-.273.2-.4.275a5,5,0,0,1-2.266-.278c-.877-.224-1.655-.448-1.661-.284-.029.644.5,1.086,1.082,1.645,4.838,4.493,10.325,8.34,15.11,12.889a2.288,2.288,0,0,1,.571.695c-.019.275-.694.223-1.439-.149-2.009-1.165-2.629-1.6-3.844-2.313-.314-.1-1.129-.371-1.158-.171.072.357.486.586.845.851,3,2.215,7.795,4.757,10.508,6.911a17.3,17.3,0,0,1,2.057,1.544c.359.484,5.054,3.473,4.613,3.424a1.126,1.126,0,0,0-.179,0,.957.957,0,0,1-.391-.028c-1.564-.941-5.662-3.605-5.88-3.548-.185.048.55.606.918,1.265.89.77,2.263,1.742,3.721,2.8.428.311,2.776,2.314,3.077,2.605.068.064.4.394.423.435.162.135.692.725,1.014,1.013.911,1.238-1.014-.532-1.786-1.225-.6-.188-.92-.19-1.25-.346-.509-.491-1.1-.9-1.555-1.264a106.305,106.305,0,0,0-16.321-10.643,26.693,26.693,0,0,0-4.883-2.091,10.786,10.786,0,0,0-1.713-.311c-.037,0-.01.038.017.079s.052.08.017.079c.043.021.452.275.524.313,3.925,2.146,6.449,4.883,9.741,7.663.3.249.6.657.5,1.012a2.312,2.312,0,0,1-1.73-.168c-.311-.1-1.469-.368-1.469-.368-.514-.1-.621-.321-.725-.139.007.353.383.689.625.925,5.329,5.2,8.119,9.388,12.292,15.951.567.892,2.841,3.546,3.2,4.576.284.807,1.058,1.69,1.446,2.552a2.907,2.907,0,0,1,.155.42c-.042.053-.112.042-.2.032a.513.513,0,0,0-.218.007c-.678.209.1,1.166.379,2.016.187.578-.765.69-1.536.733a19.289,19.289,0,0,1-3.348-2.228c-.223-.164-.489-.335-.713-.531-.138-.121-.214-.157-.3.014.12.157,1.068,1.431,1.186,1.587,1.75,2.3,2.478,2.77,3.217,3.775a.579.579,0,0,1,.085.665,2.373,2.373,0,0,1-.772.365,5.665,5.665,0,0,1-3.517.021,31.959,31.959,0,0,1-6.734-4.4,4.188,4.188,0,0,0-.674-.582c-.737.326-.851.9-1.118,1.161-.3.113-.372.052-.745-.1a10.424,10.424,0,0,1-2.495-1.507c-1-.8-6.839-7.262-11.5-12.473-.04-.038-.085-.081-.119-.114a46.059,46.059,0,0,1-8.4-4.226,51.393,51.393,0,0,0-8.6-4.792c-8.36-3.963-17.645-9.618-24.422-4.643a21.012,21.012,0,0,0-.257,5.833c-.263,1.022-.78,1.327-1.567,1.912-.577.429-1.969.6-2.525,1.053-6.2,5.042-11.29,9.846-18.21,14.477-.978.655-2.2,1.524-3.146,2.23a3.311,3.311,0,0,0-1.122,1.736,7.991,7.991,0,0,0,.689,2.591c.322.637.67,1.267.974,1.88,3.5,3.52,5.232,9.1,5.232,15.94V151.1a2.065,2.065,0,0,1-2.111,2.022Zm12.226-72.8a40.191,40.191,0,0,1,.343,4.547c-.042.922-.664,1.136-1.072,2.016-.065,1.415-.444.614-1.33,2.53a61.277,61.277,0,0,1-2.787,5.9c.16.16.4.081.571-.006,2.846-1.437,6.506-5.468,8.65-7.871-1.458-3.517-1.629-4.8-2.553-6.887-.3-.667-.727-.855-1.392-1.263A.93.93,0,0,0,359.22,80.32ZM277.513,40.366c.7-3.2.978-6.212.2-7.766a14.893,14.893,0,0,0-5.772,4.043h.092A5.493,5.493,0,0,1,277.513,40.366ZM251.647,153.119a1.99,1.99,0,0,1-2.024-2.022V111.252a2.065,2.065,0,0,1,2.024-2.111h5.365a2.141,2.141,0,0,1,2.112,2.111V151.1a2.066,2.066,0,0,1-2.112,2.022Zm-18.208,0c-10.555,0-13.633-5.013-13.633-14.073V117.5h-5.98a1.99,1.99,0,0,1-2.024-2.022v-4.222a2.066,2.066,0,0,1,2.024-2.111c4.31,0,6.068-.968,6.068-5.454V99.815a2.066,2.066,0,0,1,2.024-2.11h5.189a2.066,2.066,0,0,1,2.022,2.11v9.325h8.885a2.14,2.14,0,0,1,2.111,2.111v4.222a2.065,2.065,0,0,1-2.111,2.022h-8.885v20.23c0,5.015.616,6.861,5.894,6.861h2.991a2.066,2.066,0,0,1,2.111,2.024V151.1a2.065,2.065,0,0,1-2.111,2.022Zm-89.454,0a1.988,1.988,0,0,1-2.021-2.022V111.252a2.064,2.064,0,0,1,2.021-2.111h4.927a2.066,2.066,0,0,1,2.022,2.111v4.486a13.2,13.2,0,0,1,11.7-6.6h1.144a2.14,2.14,0,0,1,2.11,2.111v5.277a2.066,2.066,0,0,1-2.11,2.024h-1.232c-7.389,0-11.171,4.4-11.171,12.665V151.1a2.065,2.065,0,0,1-2.111,2.022Zm-67.375,0a1.989,1.989,0,0,1-2.022-2.022V111.252a2.064,2.064,0,0,1,2.022-2.111h5.366a2.139,2.139,0,0,1,2.11,2.111V151.1a2.064,2.064,0,0,1-2.11,2.022Zm-21.11,0a1.99,1.99,0,0,1-2.022-2.022V128.668c0-7.565-1.23-12.315-8.356-12.315s-8.884,4.749-8.884,12.315V151.1a2.044,2.044,0,0,1-2.022,2.022H28.763A1.989,1.989,0,0,1,26.74,151.1V128.668c0-8.006-1.495-12.315-8.356-12.315-7.477,0-8.884,5.19-8.884,12.315V151.1a2.065,2.065,0,0,1-2.111,2.022H2.024A1.99,1.99,0,0,1,0,151.1V111.252a2.065,2.065,0,0,1,2.024-2.111H7.389A2.14,2.14,0,0,1,9.5,111.252v2.9c2.11-3.166,5.454-5.892,11.435-5.892,5.365,0,10.112,2.111,12.928,7.126,2.992-4.576,7.565-7.126,13.635-7.126,12.929,0,15.479,8.62,15.479,21.286V151.1a2.064,2.064,0,0,1-2.111,2.022ZM73.62,96.826a5.45,5.45,0,0,1,5.63-5.805,5.762,5.762,0,1,1,0,11.523A5.426,5.426,0,0,1,73.62,96.826Z" transform="translate(1349.582 347)"/>
    <path id="Pfad_10" data-name="Pfad 10" d="M-3.3-13.231c0-4.926,4.837-6.245,8.8-6.245,7.741,0,9.236,3.781,9.852,6.51.176.791.44,1.141,1.231,1.141h3.783a1.182,1.182,0,0,0,1.23-1.141v-.616c-.7-2.376-2.374-11.7-15.92-11.7-7.476,0-15.481,3.344-15.481,12.227,0,18.471,25.948,9.412,25.948,20.758,0,5.278-4.31,7.035-9.938,7.035-6.685,0-9.589-3.693-10.467-6.947a1.146,1.146,0,0,0-1.32-1.055H-9.279a1.156,1.156,0,0,0-1.143.879,3.625,3.625,0,0,0-.087.967c.879,6.07,6.6,11.876,16.623,11.876,8.972,0,16.537-3.43,16.537-12.843C22.65-10.329-3.3-1.269-3.3-13.231M51.589,19.578a1.364,1.364,0,0,0,1.5-1.409V15a1.5,1.5,0,0,0-1.5-1.582h-1.76c-7.3,0-8.178-2.113-8.178-9.939V-18.331h9.938a1.432,1.432,0,0,0,1.5-1.495v-2.992a1.505,1.505,0,0,0-1.5-1.584H41.651v-9.85a1.505,1.505,0,0,0-1.5-1.585H36.636a1.438,1.438,0,0,0-1.407,1.585V-31c0,5.541-2.287,6.6-6.949,6.6a1.437,1.437,0,0,0-1.407,1.584v2.992a1.363,1.363,0,0,0,1.407,1.495h6.772V4.1c0,10.291,2.023,15.481,14.074,15.481ZM91.169-24.4a1.5,1.5,0,0,0-1.495,1.584V1.371c0,8.62-4.31,13.193-10.818,13.193-6.6,0-10.116-4.573-10.116-13.193V-22.818a1.562,1.562,0,0,0-1.5-1.584H63.551a1.505,1.505,0,0,0-1.5,1.584V1.021c0,12.313,5.365,19.438,15.481,19.438,6.772,0,10.2-3.08,12.139-6.157v3.868a1.363,1.363,0,0,0,1.495,1.409h3.695a1.411,1.411,0,0,0,1.5-1.409V-22.818a1.562,1.562,0,0,0-1.5-1.584ZM137.083,1.371c0,8.18-4.486,13.193-11.435,13.193S114.39,9.551,114.39,1.371V-6.1c0-8.091,4.31-13.195,11.347-13.195,6.772,0,11.346,4.838,11.346,12.665Zm0,16.8a1.339,1.339,0,0,0,1.407,1.409h3.694a1.439,1.439,0,0,0,1.585-1.409V-40.409a1.579,1.579,0,0,0-1.585-1.585H138.49a1.492,1.492,0,0,0-1.407,1.585v21.637c-2.288-3.694-6.421-6.51-12.666-6.51-9.764,0-16.625,6.95-16.625,19.615V.843c0,12.755,6.949,19.616,16.625,19.616,5.981,0,10.29-2.552,12.666-6.421ZM161.095-33.2a4.293,4.293,0,0,0,4.487-4.485,4.294,4.294,0,0,0-4.487-4.486,4.294,4.294,0,0,0-4.486,4.486,4.294,4.294,0,0,0,4.486,4.485m1.848,52.776a1.411,1.411,0,0,0,1.5-1.409V-22.818a1.562,1.562,0,0,0-1.5-1.584h-3.695a1.506,1.506,0,0,0-1.5,1.584V18.169a1.364,1.364,0,0,0,1.5,1.409ZM176.311,1.021c0,12.313,7.741,19.438,17.944,19.438,10.116,0,17.944-7.125,17.944-19.438V-5.666c0-12.314-7.828-19.615-17.944-19.615-10.2,0-17.944,7.3-17.944,19.615Zm6.6-7.125c0-8.532,4.751-13.195,11.347-13.195s11.26,4.663,11.26,13.195V1.371c0,8.62-4.662,13.193-11.26,13.193S182.908,9.992,182.908,1.371Z" transform="translate(1358.509 404.38)"/>
  </g>
</svg>
