<?xml version="1.0" encoding="UTF-8"?>
<svg width="206px" height="170px" viewBox="0 0 206 170" version="1.1" xmlns="http://www.w3.org/2000/svg" xmlns:xlink="http://www.w3.org/1999/xlink">
    <!-- Generator: Sketch 51.2 (57519) - http://www.bohemiancoding.com/sketch -->
    <title>Logo</title>
    <desc>Created with Sketch.</desc>
    <defs>
        <polygon id="path-1" points="0 0.137571383 205.861908 0.137571383 205.861908 13.403025 0 13.403025"></polygon>
    </defs>
    <g id="Logo" stroke="none" stroke-width="1" fill="none" fill-rule="evenodd">
        <g id="logo-pink" transform="translate(0.000000, 61.000000)">
            <path d="M4.40921696,46.2196397 L4.40921696,46.608582 C4.40921696,47.1823683 3.89831752,48.0276441 2.80427024,48.0276441 C1.87639429,48.0276441 1.126043,47.3960941 1.126043,46.2581488 L1.126043,44.7611058 C1.126043,43.6241232 1.86607309,42.9819832 2.79394904,42.9819832 C3.78375219,42.9819832 4.25336683,43.6433778 4.33593643,44.2171641 C4.36793215,44.3529088 4.42985936,44.4212625 4.53410349,44.4212625 L5.3267717,44.4212625 C5.42069463,44.4212625 5.48262183,44.3625361 5.48262183,44.2653005 C5.48262183,44.2171641 5.48262183,44.1776922 5.47230063,44.1295558 C5.30509718,43.0214551 4.38857456,42 2.79394904,42 C1.19932353,42 0,43.0888461 0,44.7418512 L0,46.2581488 C0,47.8235456 1.05276248,49 2.73098972,49 C3.52365793,49 4.1904075,48.6890386 4.50313988,48.2028607 L4.50313988,48.6794114 C4.50313988,48.8055288 4.60738401,48.9027644 4.74259174,48.9027644 L5.25349118,48.9027644 C5.38869891,48.9027644 5.49294303,48.8055288 5.49294303,48.6794114 L5.49294303,45.4908541 C5.49294303,45.3637739 5.38869891,45.2665383 5.25349118,45.2665383 L2.90851437,45.2665383 C2.77227452,45.2665383 2.66906251,45.3637739 2.66906251,45.4908541 L2.66906251,45.9866593 C2.66906251,46.1127768 2.77227452,46.2196397 2.90851437,46.2196397 L4.40921696,46.2196397 Z M12.6125073,42.3302159 C12.6125073,42.2040985 12.497942,42.0972356 12.3617021,42.0972356 L8.29721328,42.0972356 C8.16097343,42.0972356 8.0567293,42.2040985 8.0567293,42.3302159 L8.0567293,48.6794114 C8.0567293,48.8055288 8.16097343,48.9027644 8.29721328,48.9027644 L12.3617021,48.9027644 C12.497942,48.9027644 12.6125073,48.8055288 12.6125073,48.6794114 L12.6125073,48.1547242 C12.6125073,48.0180168 12.497942,47.9304085 12.3617021,47.9304085 L9.1827723,47.9304085 L9.1827723,45.9471875 L11.6949526,45.9471875 C11.8301603,45.9471875 11.9447256,45.8499519 11.9447256,45.7238344 L11.9447256,45.1991473 C11.9447256,45.0720671 11.8301603,44.9652042 11.6949526,44.9652042 L9.1827723,44.9652042 L9.1827723,43.0792188 L12.3617021,43.0792188 C12.497942,43.0792188 12.6125073,42.9819832 12.6125073,42.8558658 L12.6125073,42.3302159 Z M16.0721738,43.0792188 L17.750401,43.0792188 C18.3965082,43.0792188 18.9497246,43.351671 18.9497246,44.1584376 L18.9497246,44.3047724 C18.9497246,45.033558 18.3965082,45.3541466 17.750401,45.3541466 L16.0721738,45.3541466 L16.0721738,43.0792188 Z M16.0721738,46.3361298 L17.5315916,46.3361298 L18.8341271,48.7275478 C18.8867652,48.8247834 18.970367,48.9027644 19.1055747,48.9027644 L19.8982429,48.9027644 C20.0014549,48.9027644 20.0644142,48.8450007 20.0644142,48.7477651 C20.0644142,48.6794114 20.0334506,48.6312749 19.9911337,48.5532939 L18.6369922,46.1609132 C19.6371165,45.8797965 20.0747354,45.18952 20.0747354,44.3047724 L20.0747354,44.0900839 C20.0747354,42.7682575 19.1365383,42.0972356 17.8236816,42.0972356 L15.1866148,42.0972356 C15.051407,42.0972356 14.9471629,42.2040985 14.9471629,42.3302159 L14.9471629,48.6794114 C14.9471629,48.8055288 15.051407,48.9027644 15.1866148,48.9027644 L15.8224007,48.9027644 C15.9576085,48.9027644 16.0721738,48.8055288 16.0721738,48.6794114 L16.0721738,46.3361298 Z M23.2743077,48.9027644 C23.4105475,48.9027644 23.5251128,48.8055288 23.5251128,48.6794114 L23.5251128,43.6626324 L25.5573573,48.7670197 C25.5883209,48.854628 25.640959,48.9027644 25.7658455,48.9027644 L26.3489934,48.9027644 C26.4429163,48.9027644 26.526518,48.8642553 26.5688349,48.7573924 L28.5690837,43.6915142 L28.5690837,48.6794114 C28.5690837,48.8055288 28.6846811,48.9027644 28.8198888,48.9027644 L29.4133579,48.9027644 C29.5495977,48.9027644 29.6538418,48.8055288 29.6538418,48.6794114 L29.6538418,42.3302159 C29.6538418,42.2040985 29.5495977,42.0972356 29.4133579,42.0972356 L28.3193106,42.0972356 C28.2253877,42.0972356 28.1634605,42.1655893 28.1314647,42.2339431 L26.0682567,47.4442305 L24.0143378,42.223353 C23.9833742,42.1655893 23.9204148,42.0972356 23.8058495,42.0972356 L22.6911598,42.0972356 C22.55492,42.0972356 22.4506759,42.2040985 22.4506759,42.3302159 L22.4506759,48.6794114 C22.4506759,48.8055288 22.55492,48.9027644 22.6911598,48.9027644 L23.2743077,48.9027644 Z M35.886815,46.3650117 L33.6254399,46.3650117 L34.7618041,43.3227892 L35.886815,46.3650117 Z M33.2817439,47.3084858 L36.2315431,47.3084858 L36.7837273,48.776647 C36.8043697,48.8450007 36.867329,48.9027644 36.9922156,48.9027644 L37.7632093,48.9027644 C37.8571322,48.9027644 37.9407339,48.8450007 37.9407339,48.7477651 C37.9407339,48.6986659 37.8880958,48.5918031 37.8777746,48.5532939 L35.4491961,42.2820795 C35.4182325,42.1944712 35.3449519,42.0972356 35.2097442,42.0972356 L34.3551488,42.0972356 C34.2199411,42.0972356 34.1363393,42.1944712 34.1053757,42.2820795 L31.6871184,48.5629212 C31.6551227,48.6312749 31.6241591,48.6986659 31.6241591,48.7477651 C31.6241591,48.8450007 31.7077608,48.9027644 31.8016837,48.9027644 L32.5313926,48.9027644 C32.603641,48.9027644 32.6975639,48.8835098 32.7295597,48.7670197 L33.2817439,47.3084858 Z M40.8709228,48.6794114 L40.8709228,43.7502407 L44.0395314,48.6409022 C44.2067349,48.9027644 44.3316214,48.9027644 44.4255444,48.9027644 L44.998371,48.9027644 C45.1335787,48.9027644 45.248144,48.8055288 45.248144,48.6794114 L45.248144,42.3302159 C45.248144,42.2040985 45.1335787,42.0972356 44.998371,42.0972356 L44.3935486,42.0972356 C44.2583409,42.0972356 44.1437756,42.2040985 44.1437756,42.3302159 L44.1437756,46.9878971 L41.1000535,42.2820795 C41.0587687,42.2137258 40.9648457,42.0972356 40.8193168,42.0972356 L40.0163274,42.0972356 C39.8811197,42.0972356 39.7768755,42.2040985 39.7768755,42.3302159 L39.7768755,48.6794114 C39.7768755,48.8055288 39.8811197,48.9027644 40.0163274,48.9027644 L40.631471,48.9027644 C40.7666787,48.9027644 40.8709228,48.8055288 40.8709228,48.6794114 Z M55.9109765,42.3302159 C55.9109765,42.2040985 55.7964112,42.0972356 55.6612035,42.0972356 L51.5956825,42.0972356 C51.4604748,42.0972356 51.3562306,42.2040985 51.3562306,42.3302159 L51.3562306,48.6794114 C51.3562306,48.8055288 51.4604748,48.9027644 51.5956825,48.9027644 L55.6612035,48.9027644 C55.7964112,48.9027644 55.9109765,48.8055288 55.9109765,48.6794114 L55.9109765,48.1547242 C55.9109765,48.0180168 55.7964112,47.9304085 55.6612035,47.9304085 L52.4822736,47.9304085 L52.4822736,45.9471875 L54.9944539,45.9471875 C55.1296616,45.9471875 55.244227,45.8499519 55.244227,45.7238344 L55.244227,45.1991473 C55.244227,45.0720671 55.1296616,44.9652042 54.9944539,44.9652042 L52.4822736,44.9652042 L52.4822736,43.0792188 L55.6612035,43.0792188 C55.7964112,43.0792188 55.9109765,42.9819832 55.9109765,42.8558658 L55.9109765,42.3302159 Z M59.069264,48.9027644 C59.2044717,48.9027644 59.3200691,48.8055288 59.3200691,48.6794114 L59.3200691,43.6626324 L61.3523136,48.7670197 C61.3832772,48.854628 61.4359153,48.9027644 61.5608018,48.9027644 L62.1439497,48.9027644 C62.2378726,48.9027644 62.3214743,48.8642553 62.3627591,48.7573924 L64.3640399,43.6915142 L64.3640399,48.6794114 C64.3640399,48.8055288 64.4786053,48.9027644 64.6148451,48.9027644 L65.2083142,48.9027644 C65.344554,48.9027644 65.4487981,48.8055288 65.4487981,48.6794114 L65.4487981,42.3302159 C65.4487981,42.2040985 65.344554,42.0972356 65.2083142,42.0972356 L64.1142669,42.0972356 C64.020344,42.0972356 63.9573846,42.1655893 63.926421,42.2339431 L61.863213,47.4442305 L59.8092941,42.223353 C59.7783305,42.1655893 59.7153711,42.0972356 59.6008058,42.0972356 L58.4861161,42.0972356 C58.3498763,42.0972356 58.2456321,42.2040985 58.2456321,42.3302159 L58.2456321,48.6794114 C58.2456321,48.8055288 58.3498763,48.9027644 58.4861161,48.9027644 L59.069264,48.9027644 Z M69.1272741,48.9027644 C69.2624818,48.9027644 69.3770471,48.8055288 69.3770471,48.6794114 L69.3770471,42.3302159 C69.3770471,42.2040985 69.2624818,42.0972356 69.1272741,42.0972356 L68.4914881,42.0972356 C68.3552483,42.0972356 68.2510041,42.2040985 68.2510041,42.3302159 L68.2510041,48.6794114 C68.2510041,48.8055288 68.3552483,48.9027644 68.4914881,48.9027644 L69.1272741,48.9027644 Z M76.2251638,46.2196397 L76.2251638,46.608582 C76.2251638,47.1823683 75.7142644,48.0276441 74.6202171,48.0276441 C73.6923412,48.0276441 72.9419899,47.3960941 72.9419899,46.2581488 L72.9419899,44.7611058 C72.9419899,43.6241232 73.68202,42.9819832 74.6098959,42.9819832 C75.5996991,42.9819832 76.0682816,43.6433778 76.1518833,44.2171641 C76.1828469,44.3529088 76.2458062,44.4212625 76.3500504,44.4212625 L77.1427186,44.4212625 C77.2356094,44.4212625 77.2985687,44.3625361 77.2985687,44.2653005 C77.2985687,44.2171641 77.2985687,44.1776922 77.2882475,44.1295558 C77.1210441,43.0214551 76.2045214,42 74.6098959,42 C73.0142383,42 71.8159469,43.0888461 71.8159469,44.7418512 L71.8159469,46.2581488 C71.8159469,47.8235456 72.8687094,49 74.5469366,49 C75.3385727,49 76.0063544,48.6890386 76.3190868,48.2028607 L76.3190868,48.6794114 C76.3190868,48.8055288 76.4233309,48.9027644 76.5585386,48.9027644 L77.0694381,48.9027644 C77.2046458,48.9027644 77.3088899,48.8055288 77.3088899,48.6794114 L77.3088899,45.4908541 C77.3088899,45.3637739 77.2046458,45.2665383 77.0694381,45.2665383 L74.7244612,45.2665383 C74.5882214,45.2665383 74.4839773,45.3637739 74.4839773,45.4908541 L74.4839773,45.9866593 C74.4839773,46.1127768 74.5882214,46.2196397 74.7244612,46.2196397 L76.2251638,46.2196397 Z M80.9987192,43.0792188 L82.6769464,43.0792188 C83.3230536,43.0792188 83.8752378,43.351671 83.8752378,44.1584376 L83.8752378,44.3047724 C83.8752378,45.033558 83.3230536,45.3541466 82.6769464,45.3541466 L80.9987192,45.3541466 L80.9987192,43.0792188 Z M80.9987192,46.3361298 L82.458137,46.3361298 L83.7606725,48.7275478 C83.8133106,48.8247834 83.8958802,48.9027644 84.0321201,48.9027644 L84.8237562,48.9027644 C84.9280003,48.9027644 84.9909596,48.8450007 84.9909596,48.7477651 C84.9909596,48.6794114 84.9589639,48.6312749 84.9176791,48.5532939 L83.5625054,46.1609132 C84.5636619,45.8797965 85.0012808,45.18952 85.0012808,44.3047724 L85.0012808,44.0900839 C85.0012808,42.7682575 84.0630837,42.0972356 82.7502269,42.0972356 L80.1131602,42.0972356 C79.9769203,42.0972356 79.8726762,42.2040985 79.8726762,42.3302159 L79.8726762,48.6794114 C79.8726762,48.8055288 79.9769203,48.9027644 80.1131602,48.9027644 L80.7489461,48.9027644 C80.8841538,48.9027644 80.9987192,48.8055288 80.9987192,48.6794114 L80.9987192,46.3361298 Z M90.7770248,46.3650117 L88.5146176,46.3650117 L89.6509818,43.3227892 L90.7770248,46.3650117 Z M88.1709216,47.3084858 L91.1207207,47.3084858 L91.672905,48.776647 C91.6945795,48.8450007 91.7565067,48.9027644 91.8813932,48.9027644 L92.6534191,48.9027644 C92.747342,48.9027644 92.8299116,48.8450007 92.8299116,48.7477651 C92.8299116,48.6986659 92.7783056,48.5918031 92.7679844,48.5532939 L90.3394058,42.2820795 C90.3074101,42.1944712 90.2351617,42.0972356 90.0989219,42.0972356 L89.2443264,42.0972356 C89.1091187,42.0972356 89.025517,42.1944712 88.9945534,42.2820795 L86.5762961,48.5629212 C86.5453325,48.6312749 86.5133367,48.6986659 86.5133367,48.7477651 C86.5133367,48.8450007 86.5969385,48.9027644 86.6908614,48.9027644 L87.4205703,48.9027644 C87.4938508,48.9027644 87.5877737,48.8835098 87.6187373,48.7670197 L88.1709216,47.3084858 Z M93.4770509,42.8558658 C93.4770509,42.9819832 93.5802629,43.0792188 93.7268239,43.0792188 L95.7074624,43.0792188 L95.7074624,48.6794114 C95.7074624,48.8055288 95.8117065,48.9027644 95.9469142,48.9027644 L96.5827002,48.9027644 C96.7179079,48.9027644 96.822152,48.8055288 96.822152,48.6794114 L96.822152,43.0792188 L98.8027905,43.0792188 C98.9379982,43.0792188 99.0525635,42.9819832 99.0525635,42.8558658 L99.0525635,42.3302159 C99.0525635,42.2040985 98.9379982,42.0972356 98.8027905,42.0972356 L93.7268239,42.0972356 C93.5802629,42.0972356 93.4770509,42.2040985 93.4770509,42.3302159 L93.4770509,42.8558658 Z M102.002363,48.9027644 C102.13757,48.9027644 102.253168,48.8055288 102.253168,48.6794114 L102.253168,42.3302159 C102.253168,42.2040985 102.13757,42.0972356 102.002363,42.0972356 L101.366577,42.0972356 C101.231369,42.0972356 101.127125,42.2040985 101.127125,42.3302159 L101.127125,48.6794114 C101.127125,48.8055288 101.231369,48.9027644 101.366577,48.9027644 L102.002363,48.9027644 Z M104.692068,46.2581488 C104.692068,47.9111539 105.890359,49 107.474663,49 C109.048646,49 110.257259,47.9111539 110.257259,46.2581488 L110.257259,44.7418512 C110.257259,43.0888461 109.048646,42 107.464342,42 C105.880038,42 104.692068,43.0888461 104.692068,44.7418512 L104.692068,46.2581488 Z M105.817078,44.7611058 C105.817078,43.6241232 106.557109,42.9819832 107.464342,42.9819832 C108.370544,42.9819832 109.132248,43.6241232 109.132248,44.7611058 L109.132248,46.2581488 C109.132248,47.3960941 108.370544,48.0276441 107.474663,48.0276441 C106.557109,48.0276441 105.817078,47.3960941 105.817078,46.2581488 L105.817078,44.7611058 Z M113.791238,48.6794114 L113.791238,43.7502407 L116.959847,48.6409022 C117.126018,48.9027644 117.250905,48.9027644 117.344828,48.9027644 L117.918686,48.9027644 C118.053894,48.9027644 118.168459,48.8055288 118.168459,48.6794114 L118.168459,42.3302159 C118.168459,42.2040985 118.053894,42.0972356 117.918686,42.0972356 L117.313864,42.0972356 C117.178656,42.0972356 117.064091,42.2040985 117.064091,42.3302159 L117.064091,46.9878971 L114.020369,42.2820795 C113.978052,42.2137258 113.884129,42.0972356 113.7386,42.0972356 L112.936643,42.0972356 C112.800403,42.0972356 112.696159,42.2040985 112.696159,42.3302159 L112.696159,48.6794114 C112.696159,48.8055288 112.800403,48.9027644 112.936643,48.9027644 L113.550754,48.9027644 C113.686994,48.9027644 113.791238,48.8055288 113.791238,48.6794114 Z M128.549523,46.5498556 C128.414315,46.5498556 128.373031,46.6470912 128.351356,46.7645441 C128.268786,47.4740751 127.725891,48.0276441 126.830011,48.0276441 C125.912456,48.0276441 125.172426,47.3960941 125.172426,46.2581488 L125.172426,44.7611058 C125.172426,43.6241232 125.912456,42.9819832 126.81969,42.9819832 C127.725891,42.9819832 128.236791,43.5750241 128.341035,44.2171641 C128.361677,44.3721634 128.445279,44.4212625 128.539202,44.4212625 L129.310196,44.4212625 C129.436114,44.4212625 129.508363,44.3529088 129.498041,44.2267914 C129.373155,43.0407097 128.403994,42 126.81969,42 C125.235386,42 124.047415,43.0888461 124.047415,44.7514785 L124.047415,46.2581488 C124.047415,47.9111539 125.245707,49 126.830011,49 C128.403994,49 129.425793,47.9015266 129.508363,46.7250722 C129.508363,46.6374639 129.436114,46.5498556 129.342191,46.5498556 L128.549523,46.5498556 Z M136.460723,42.3302159 C136.460723,42.2040985 136.346158,42.0972356 136.21095,42.0972356 L132.145429,42.0972356 C132.010222,42.0972356 131.905978,42.2040985 131.905978,42.3302159 L131.905978,48.6794114 C131.905978,48.8055288 132.010222,48.9027644 132.145429,48.9027644 L136.21095,48.9027644 C136.346158,48.9027644 136.460723,48.8055288 136.460723,48.6794114 L136.460723,48.1547242 C136.460723,48.0180168 136.346158,47.9304085 136.21095,47.9304085 L133.032021,47.9304085 L133.032021,45.9471875 L135.543169,45.9471875 C135.679409,45.9471875 135.793974,45.8499519 135.793974,45.7238344 L135.793974,45.1991473 C135.793974,45.0720671 135.679409,44.9652042 135.543169,44.9652042 L133.032021,44.9652042 L133.032021,43.0792188 L136.21095,43.0792188 C136.346158,43.0792188 136.460723,42.9819832 136.460723,42.8558658 L136.460723,42.3302159 Z M139.889426,48.6794114 L139.889426,43.7502407 L143.059067,48.6409022 C143.225238,48.9027644 143.350125,48.9027644 143.444048,48.9027644 L144.017907,48.9027644 C144.153114,48.9027644 144.26768,48.8055288 144.26768,48.6794114 L144.26768,42.3302159 C144.26768,42.2040985 144.153114,42.0972356 144.017907,42.0972356 L143.413084,42.0972356 C143.277877,42.0972356 143.163311,42.2040985 143.163311,42.3302159 L143.163311,46.9878971 L140.119589,42.2820795 C140.077272,42.2137258 139.983349,42.0972356 139.83782,42.0972356 L139.034831,42.0972356 C138.899623,42.0972356 138.795379,42.2040985 138.795379,42.3302159 L138.795379,48.6794114 C138.795379,48.8055288 138.899623,48.9027644 139.034831,48.9027644 L139.649975,48.9027644 C139.785182,48.9027644 139.889426,48.8055288 139.889426,48.6794114 Z M146.330888,42.8558658 C146.330888,42.9819832 146.435132,43.0792188 146.581693,43.0792188 L148.562331,43.0792188 L148.562331,48.6794114 C148.562331,48.8055288 148.666575,48.9027644 148.801783,48.9027644 L149.437569,48.9027644 C149.572777,48.9027644 149.677021,48.8055288 149.677021,48.6794114 L149.677021,43.0792188 L151.657659,43.0792188 C151.792867,43.0792188 151.907433,42.9819832 151.907433,42.8558658 L151.907433,42.3302159 C151.907433,42.2040985 151.792867,42.0972356 151.657659,42.0972356 L146.581693,42.0972356 C146.435132,42.0972356 146.330888,42.2040985 146.330888,42.3302159 L146.330888,42.8558658 Z M158.53674,42.3302159 C158.53674,42.2040985 158.422174,42.0972356 158.286967,42.0972356 L154.221446,42.0972356 C154.086238,42.0972356 153.981994,42.2040985 153.981994,42.3302159 L153.981994,48.6794114 C153.981994,48.8055288 154.086238,48.9027644 154.221446,48.9027644 L158.286967,48.9027644 C158.422174,48.9027644 158.53674,48.8055288 158.53674,48.6794114 L158.53674,48.1547242 C158.53674,48.0180168 158.422174,47.9304085 158.286967,47.9304085 L155.107005,47.9304085 L155.107005,45.9471875 L157.619185,45.9471875 C157.755425,45.9471875 157.86999,45.8499519 157.86999,45.7238344 L157.86999,45.1991473 C157.86999,45.0720671 157.755425,44.9652042 157.619185,44.9652042 L155.107005,44.9652042 L155.107005,43.0792188 L158.286967,43.0792188 C158.422174,43.0792188 158.53674,42.9819832 158.53674,42.8558658 L158.53674,42.3302159 Z M161.997438,43.0792188 L163.674633,43.0792188 C164.321773,43.0792188 164.873957,43.351671 164.873957,44.1584376 L164.873957,44.3047724 C164.873957,45.033558 164.321773,45.3541466 163.674633,45.3541466 L161.997438,45.3541466 L161.997438,43.0792188 Z M161.997438,46.3361298 L163.455824,46.3361298 L164.759392,48.7275478 C164.810998,48.8247834 164.894599,48.9027644 165.029807,48.9027644 L165.822475,48.9027644 C165.926719,48.9027644 165.988647,48.8450007 165.988647,48.7477651 C165.988647,48.6794114 165.957683,48.6312749 165.916398,48.5532939 L164.561225,46.1609132 C165.561349,45.8797965 166,45.18952 166,44.3047724 L166,44.0900839 C166,42.7682575 165.061803,42.0972356 163.747914,42.0972356 L161.110847,42.0972356 C160.975639,42.0972356 160.871395,42.2040985 160.871395,42.3302159 L160.871395,48.6794114 C160.871395,48.8055288 160.975639,48.9027644 161.110847,48.9027644 L161.746633,48.9027644 C161.881841,48.9027644 161.997438,48.8055288 161.997438,48.6794114 L161.997438,46.3361298 Z" id="Fill-1" fill="#FFFFFF"></path>
            <g id="Group-5" transform="translate(0.000000, 19.000000)">
                <mask id="mask-2" fill="white">
                    <use xlink:href="#path-1"></use>
                </mask>
                <g id="Clip-4"></g>
                <path d="M7.60295276,8.28147617 L4.29556583,8.28147617 L5.98704322,3.43587289 L7.60295276,8.28147617 Z M3.45914372,10.6766833 L8.40107337,10.6766833 L9.16192764,12.906323 C9.19919397,13.0538285 9.35136482,13.2193958 9.65570653,13.2193958 L11.5562894,13.2193958 C11.8036965,13.2193958 11.9931337,13.0538285 11.9931337,12.8140067 C11.9931337,12.6845632 11.8606312,12.3714905 11.841998,12.3163013 L7.65988744,0.727593071 C7.60295276,0.56202576 7.4124804,0.32220402 7.08950553,0.32220402 L4.96118392,0.32220402 C4.63820905,0.32220402 4.44773668,0.56202576 4.39080201,0.727593071 L0.0948221106,12.4638068 C0.0575557789,12.574185 -0.000414070352,12.7036285 -0.000414070352,12.8140067 C-0.000414070352,13.0538285 0.190058291,13.2193958 0.437465327,13.2193958 L2.24281206,13.2193958 C2.39498291,13.2193958 2.62272161,13.1451413 2.69932462,12.8872577 L3.45914372,10.6766833 Z M22.347998,0.32220402 C22.0239879,0.32220402 21.7579477,0.580087649 21.7579477,0.893160381 L21.7579477,8.18915985 C21.7579477,10.0866616 20.8076563,10.8974397 19.4588221,10.8974397 C18.1089528,10.8974397 17.1969628,10.0866616 17.1969628,8.18915985 L17.1969628,0.893160381 C17.1969628,0.580087649 16.9309226,0.32220402 16.6069126,0.32220402 L15.0293045,0.32220402 C14.7063296,0.32220402 14.4402894,0.580087649 14.4402894,0.893160381 L14.4402894,8.18915985 C14.4402894,11.4132069 16.4557769,13.403025 19.4588221,13.403025 C22.4618673,13.403025 24.5146211,11.4132069 24.5146211,8.18915985 L24.5146211,0.893160381 C24.5146211,0.580087649 24.2485809,0.32220402 23.925606,0.32220402 L22.347998,0.32220402 Z M37.1924201,4.26471288 C37.515395,4.26471288 37.7814352,4.00682925 37.7814352,3.69375652 C37.7814352,1.8514439 36.2038271,0.137571383 33.2380482,0.137571383 C29.9689628,0.137571383 28.4482894,1.57449495 28.4482894,3.73088373 C28.4482894,8.63167612 35.2338673,7.0281818 35.2338673,9.58995964 C35.2338673,10.6947451 34.6262191,11.0820723 33.1438472,11.0820723 C31.1097266,11.0820723 30.9389226,9.71839974 30.8623196,9.36819979 C30.8053849,9.14744337 30.6345809,8.87149786 30.311606,8.87149786 L28.7712643,8.87149786 C28.4482894,8.87149786 28.1822492,9.12938149 28.1822492,9.44245422 C28.1822492,11.1743886 29.7029226,13.403025 33.1438472,13.403025 C35.5765106,13.403025 37.9905407,12.4086177 37.9905407,9.58995964 C37.9905407,4.50453462 31.2049628,6.08896361 31.2049628,3.73088373 C31.2049628,2.71741111 31.9647819,2.45952748 33.2007819,2.45952748 C34.4357467,2.45952748 34.8353246,3.14086205 35.0247618,3.74894562 C35.119998,4.09914557 35.3104704,4.26471288 35.6334452,4.26471288 L37.1924201,4.26471288 Z M47.1901487,12.7768795 L49.2998372,4.24665099 L51.4850935,12.7768795 C51.5420281,12.979574 51.7325005,13.2193958 52.0554754,13.2193958 L53.9757266,13.2193958 C54.2987015,13.2193958 54.4881387,12.979574 54.5450734,12.7768795 L57.7768925,1.11391679 C57.815194,0.967414811 57.8524603,0.819909389 57.8524603,0.745654959 C57.8524603,0.505833219 57.6630231,0.32220402 57.4156161,0.32220402 L55.5336663,0.32220402 C55.1154553,0.32220402 54.9829528,0.653338641 54.9260181,0.893160381 L52.9871337,9.09225427 L50.8577769,0.893160381 C50.7439075,0.432582227 50.4778673,0.32220402 50.2501286,0.32220402 L48.4437467,0.32220402 C48.1590734,0.32220402 47.9313347,0.505833219 47.8360985,0.893160381 L45.7264101,9.09225427 L43.7678573,0.893160381 C43.6539879,0.395455012 43.3506814,0.32220402 43.160209,0.32220402 L41.2399578,0.32220402 C40.9935859,0.32220402 40.8217467,0.505833219 40.8217467,0.745654959 C40.8217467,0.837971277 40.8983497,1.09585491 40.9552844,1.29854943 L44.1860683,12.7768795 C44.2626714,13.0718903 44.5100784,13.2193958 44.7564503,13.2193958 L46.6197668,13.2193958 C46.9427417,13.2193958 47.1321789,12.979574 47.1901487,12.7768795 Z M66.6017668,8.28147617 L63.2943799,8.28147617 L64.9868925,3.43587289 L66.6017668,8.28147617 Z M62.4579578,10.6766833 L67.3998874,10.6766833 L68.1607417,12.906323 C68.1990432,13.0538285 68.3512141,13.2193958 68.6545206,13.2193958 L70.5551035,13.2193958 C70.8025106,13.2193958 70.9929829,13.0538285 70.9929829,12.8140067 C70.9929829,12.6845632 70.8594452,12.3714905 70.8408121,12.3163013 L66.6587015,0.727593071 C66.6017668,0.56202576 66.4123296,0.32220402 66.0893548,0.32220402 L63.959998,0.32220402 C63.6370231,0.32220402 63.4465508,0.56202576 63.3896161,0.727593071 L59.0946714,12.4638068 C59.0563698,12.574185 58.9994352,12.7036285 58.9994352,12.8140067 C58.9994352,13.0538285 59.1888724,13.2193958 59.4362794,13.2193958 L61.2416261,13.2193958 C61.393797,13.2193958 61.6225709,13.1451413 61.6981387,12.8872577 L62.4579578,10.6766833 Z M82.2401688,13.2193958 L83.7608422,13.2193958 C84.0838171,13.2193958 84.3498573,12.9615121 84.3498573,12.6484394 L84.3498573,0.893160381 C84.3498573,0.580087649 84.0838171,0.32220402 83.7608422,0.32220402 L82.258802,0.32220402 C81.9358271,0.32220402 81.6697869,0.580087649 81.6697869,0.893160381 L81.6697869,8.44704348 L77.2599377,0.764720286 C77.1647015,0.598149537 76.8986613,0.32220402 76.5756864,0.32220402 L74.5042995,0.32220402 C74.1813246,0.32220402 73.9152844,0.580087649 73.9152844,0.893160381 L73.9152844,12.6484394 C73.9152844,12.9615121 74.1813246,13.2193958 74.5042995,13.2193958 L76.0053045,13.2193958 C76.3282794,13.2193958 76.5953548,12.9615121 76.5953548,12.6484394 L76.5953548,4.43028019 L81.3281789,12.5561231 C81.7453548,13.256523 82.0310633,13.2193958 82.2401688,13.2193958 Z M93.5784503,13.2193958 C96.6384302,13.2193958 98.938591,11.0449451 98.938591,7.82089802 L98.938591,5.70163645 C98.938591,2.47758937 96.6580985,0.32220402 93.5784503,0.32220402 L89.4356764,0.32220402 C89.1116663,0.32220402 88.8456261,0.580087649 88.8456261,0.893160381 L88.8456261,12.6484394 C88.8456261,12.9615121 89.1116663,13.2193958 89.4356764,13.2193958 L93.5784503,13.2193958 Z M93.5784503,2.8458512 C94.9666211,2.8458512 96.1260181,3.85932383 96.1260181,5.73876366 L96.1260181,7.82089802 C96.1260181,9.70033785 94.9666211,10.6947451 93.5784503,10.6947451 L91.6022995,10.6947451 L91.6022995,2.8458512 L93.5784503,2.8458512 Z M111.331717,0.893160381 C111.331717,0.580087649 111.065676,0.32220402 110.741666,0.32220402 L103.519244,0.32220402 C103.196269,0.32220402 102.930229,0.580087649 102.930229,0.893160381 L102.930229,12.6484394 C102.930229,12.9615121 103.196269,13.2193958 103.519244,13.2193958 L110.741666,13.2193958 C111.065676,13.2193958 111.331717,12.9615121 111.331717,12.6484394 L111.331717,11.2667049 C111.331717,10.9526288 111.065676,10.7138105 110.741666,10.7138105 L105.685867,10.7138105 L105.685867,7.93127622 L109.601938,7.93127622 C109.924913,7.93127622 110.190953,7.67339259 110.190953,7.36031986 L110.190953,5.99664729 C110.190953,5.68357456 109.924913,5.42569093 109.601938,5.42569093 L105.685867,5.42569093 L105.685867,2.82778931 L110.741666,2.82778931 C111.065676,2.82778931 111.331717,2.56990569 111.331717,2.25683295 L111.331717,0.893160381 Z M117.983757,2.82778931 L120.702129,2.82778931 C121.595485,2.82778931 122.279737,3.27030558 122.279737,4.43028019 L122.279737,4.68916726 C122.279737,5.81301809 121.595485,6.25453092 120.702129,6.25453092 L117.983757,6.25453092 L117.983757,2.82778931 Z M117.983757,8.76011621 L120.017877,8.76011621 L122.070631,12.7768795 C122.184501,12.9986394 122.373938,13.2193958 122.696913,13.2193958 L124.617164,13.2193958 C124.864571,13.2193958 125.035375,13.0538285 125.035375,12.8140067 C125.035375,12.6293741 124.940139,12.4818687 124.844903,12.2982395 L122.678279,8.28147617 C124.369757,7.71051981 125.035375,6.45722544 125.035375,4.74435636 L125.035375,4.19146189 C125.035375,1.61162216 123.267294,0.32220402 120.929867,0.32220402 L115.817134,0.32220402 C115.494159,0.32220402 115.227083,0.580087649 115.227083,0.893160381 L115.227083,12.6484394 C115.227083,12.9615121 115.494159,13.2193958 115.817134,13.2193958 L117.394742,13.2193958 C117.717717,13.2193958 117.983757,12.9615121 117.983757,12.6484394 L117.983757,8.76011621 Z M137.333264,0.893160381 C137.333264,0.580087649 137.066189,0.32220402 136.743214,0.32220402 L129.520792,0.32220402 C129.197817,0.32220402 128.931777,0.580087649 128.931777,0.893160381 L128.931777,12.6484394 C128.931777,12.9615121 129.197817,13.2193958 129.520792,13.2193958 L136.743214,13.2193958 C137.066189,13.2193958 137.333264,12.9615121 137.333264,12.6484394 L137.333264,11.2667049 C137.333264,10.9526288 137.066189,10.7138105 136.743214,10.7138105 L131.687415,10.7138105 L131.687415,7.93127622 L135.603485,7.93127622 C135.92646,7.93127622 136.192501,7.67339259 136.192501,7.36031986 L136.192501,5.99664729 C136.192501,5.68357456 135.92646,5.42569093 135.603485,5.42569093 L131.687415,5.42569093 L131.687415,2.82778931 L136.743214,2.82778931 C137.066189,2.82778931 137.333264,2.56990569 137.333264,2.25683295 L137.333264,0.893160381 Z M143.985305,2.82778931 L146.702641,2.82778931 C147.595998,2.82778931 148.280249,3.27030558 148.280249,4.43028019 L148.280249,4.68916726 C148.280249,5.81301809 147.595998,6.25453092 146.702641,6.25453092 L143.985305,6.25453092 L143.985305,2.82778931 Z M143.985305,8.76011621 L146.01839,8.76011621 L148.071144,12.7768795 C148.186048,12.9986394 148.375485,13.2193958 148.69846,13.2193958 L150.618712,13.2193958 C150.866119,13.2193958 151.036923,13.0538285 151.036923,12.8140067 C151.036923,12.6293741 150.941686,12.4818687 150.84645,12.2982395 L148.679827,8.28147617 C150.371305,7.71051981 151.036923,6.45722544 151.036923,4.74435636 L151.036923,4.19146189 C151.036923,1.61162216 149.268842,0.32220402 146.931415,0.32220402 L141.817646,0.32220402 C141.494671,0.32220402 141.228631,0.580087649 141.228631,0.893160381 L141.228631,12.6484394 C141.228631,12.9615121 141.494671,13.2193958 141.817646,13.2193958 L143.395254,13.2193958 C143.719264,13.2193958 143.985305,12.9615121 143.985305,12.6484394 L143.985305,8.76011621 Z M164.360671,13.2193958 C164.683646,13.2193958 164.949686,12.9615121 164.949686,12.6484394 L164.949686,0.893160381 C164.949686,0.580087649 164.683646,0.32220402 164.360671,0.32220402 L162.783063,0.32220402 C162.460088,0.32220402 162.194048,0.580087649 162.194048,0.893160381 L162.194048,5.49894192 L157.688963,5.49894192 L157.688963,0.893160381 C157.688963,0.580087649 157.422923,0.32220402 157.099948,0.32220402 L155.52234,0.32220402 C155.199365,0.32220402 154.933325,0.580087649 154.933325,0.893160381 L154.933325,12.6484394 C154.933325,12.9615121 155.199365,13.2193958 155.52234,13.2193958 L157.099948,13.2193958 C157.422923,13.2193958 157.688963,12.9615121 157.688963,12.6484394 L157.688963,8.00553065 L162.194048,8.00553065 L162.194048,12.6484394 C162.194048,12.9615121 162.460088,13.2193958 162.783063,13.2193958 L164.360671,13.2193958 Z M175.47432,8.28147617 L172.167968,8.28147617 L173.859445,3.43587289 L175.47432,8.28147617 Z M171.331546,10.6766833 L176.273475,10.6766833 L177.033294,12.906323 C177.071596,13.0538285 177.223767,13.2193958 177.528109,13.2193958 L179.428691,13.2193958 C179.675063,13.2193958 179.865536,13.0538285 179.865536,12.8140067 C179.865536,12.6845632 179.731998,12.3714905 179.713365,12.3163013 L175.532289,0.727593071 C175.47432,0.56202576 175.284882,0.32220402 174.961908,0.32220402 L172.832551,0.32220402 C172.509576,0.32220402 172.319104,0.56202576 172.262169,0.727593071 L167.967224,12.4638068 C167.928923,12.574185 167.871988,12.7036285 167.871988,12.8140067 C167.871988,13.0538285 168.06246,13.2193958 168.308832,13.2193958 L170.115214,13.2193958 C170.26635,13.2193958 170.495124,13.1451413 170.570691,12.8872577 L171.331546,10.6766833 Z M190.219365,0.32220402 C189.89639,0.32220402 189.63035,0.580087649 189.63035,0.893160381 L189.63035,8.18915985 C189.63035,10.0866616 188.680058,10.8974397 187.330189,10.8974397 C185.98032,10.8974397 185.06833,10.0866616 185.06833,8.18915985 L185.06833,0.893160381 C185.06833,0.580087649 184.802289,0.32220402 184.479315,0.32220402 L182.901707,0.32220402 C182.578732,0.32220402 182.312691,0.580087649 182.312691,0.893160381 L182.312691,8.18915985 C182.312691,11.4132069 184.327144,13.403025 187.330189,13.403025 C190.333234,13.403025 192.385988,11.4132069 192.385988,8.18915985 L192.385988,0.893160381 C192.385988,0.580087649 192.119948,0.32220402 191.796973,0.32220402 L190.219365,0.32220402 Z M205.063787,4.26471288 C205.386762,4.26471288 205.652802,4.00682925 205.652802,3.69375652 C205.652802,1.8514439 204.075194,0.137571383 201.11045,0.137571383 C197.841365,0.137571383 196.320691,1.57449495 196.320691,3.73088373 C196.320691,8.63167612 203.106269,7.0281818 203.106269,9.58995964 C203.106269,10.6947451 202.497586,11.0820723 201.015214,11.0820723 C198.981093,11.0820723 198.810289,9.71839974 198.734722,9.36819979 C198.677787,9.14744337 198.505948,8.87149786 198.182973,8.87149786 L196.643666,8.87149786 C196.320691,8.87149786 196.054651,9.12938149 196.054651,9.44245422 C196.054651,11.1743886 197.575325,13.403025 201.015214,13.403025 C203.447877,13.403025 205.861908,12.4086177 205.861908,9.58995964 C205.861908,4.50453462 199.07633,6.08896361 199.07633,3.73088373 C199.07633,2.71741111 199.837184,2.45952748 201.072149,2.45952748 C202.308149,2.45952748 202.706691,3.14086205 202.897164,3.74894562 C202.9924,4.09914557 203.181837,4.26471288 203.504812,4.26471288 L205.063787,4.26471288 Z" id="Fill-3" fill="#FFFFFF" mask="url(#mask-2)"></path>
            </g>
            <path d="M5.71852031,13.8051585 C8.76925217,13.8051585 11.0624613,11.5104758 11.0624613,8.10816126 L11.0624613,5.87277816 C11.0624613,2.46940473 8.78886107,0.19484154 5.71852031,0.19484154 L1.58723492,0.19484154 C1.26523616,0.19484154 1,0.466984343 1,0.797367824 L1,13.2026322 C1,13.5330157 1.26523616,13.8051585 1.58723492,13.8051585 L5.71852031,13.8051585 Z M5.71852031,2.85908781 C7.10146371,2.85908781 8.2573567,3.92753952 8.2573567,5.91089933 L8.2573567,8.10816126 C8.2573567,10.0915211 7.10146371,11.1409122 5.71852031,11.1409122 L3.74730995,11.1409122 L3.74730995,2.85908781 L5.71852031,2.85908781 Z M23.4170997,0.797367824 C23.4170997,0.466984343 23.1518635,0.19484154 22.8298648,0.19484154 L15.6292707,0.19484154 C15.3072719,0.19484154 15.0420357,0.466984343 15.0420357,0.797367824 L15.0420357,13.2026322 C15.0420357,13.5330157 15.3072719,13.8051585 15.6292707,13.8051585 L22.8298648,13.8051585 C23.1518635,13.8051585 23.4170997,13.5330157 23.4170997,13.2026322 L23.4170997,11.7444974 C23.4170997,11.4141139 23.1518635,11.1610317 22.8298648,11.1610317 L17.7893457,11.1610317 L17.7893457,8.22464261 L21.6935807,8.22464261 C22.0155794,8.22464261 22.2808156,7.95249981 22.2808156,7.62211633 L22.2808156,6.18304213 C22.2808156,5.85265865 22.0155794,5.58051585 21.6935807,5.58051585 L17.7893457,5.58051585 L17.7893457,2.83896831 L22.8298648,2.83896831 C23.1518635,2.83896831 23.4170997,2.5668255 23.4170997,2.23644202 L23.4170997,0.797367824 Z M34.9956385,0.19484154 C34.6736397,0.19484154 34.4084036,0.466984343 34.4084036,0.797367824 L34.4084036,8.49678542 C34.4084036,10.5002647 33.4609841,11.3548143 32.1151944,11.3548143 C30.7694047,11.3548143 29.8601711,10.5002647 29.8601711,8.49678542 L29.8601711,0.797367824 C29.8601711,0.466984343 29.5949349,0.19484154 29.2729361,0.19484154 L27.700096,0.19484154 C27.3780973,0.19484154 27.1128611,0.466984343 27.1128611,0.797367824 L27.1128611,8.49678542 C27.1128611,11.9001588 29.1212252,14 32.1151944,14 C35.1091637,14 37.1557135,11.9001588 37.1557135,8.49678542 L37.1557135,0.797367824 C37.1557135,0.466984343 36.8904773,0.19484154 36.5684786,0.19484154 L34.9956385,0.19484154 Z M40.3767332,2.23644202 C40.3767332,2.5668255 40.6419693,2.83896831 40.9639681,2.83896831 L44.1096483,2.83896831 L44.1096483,13.2026322 C44.1096483,13.5330157 44.3748845,13.8051585 44.6979153,13.8051585 L46.2707554,13.8051585 C46.5927541,13.8051585 46.8579903,13.5330157 46.8579903,13.2026322 L46.8579903,2.83896831 L50.0036705,2.83896831 C50.3256693,2.83896831 50.5909054,2.5668255 50.5909054,2.23644202 L50.5909054,0.797367824 C50.5909054,0.466984343 50.3256693,0.19484154 50.0036705,0.19484154 L40.9639681,0.19484154 C40.6419693,0.19484154 40.3767332,0.466984343 40.3767332,0.797367824 L40.3767332,2.23644202 Z M62.034246,4.35534377 C62.3562448,4.35534377 62.6214809,4.08320097 62.6214809,3.75281749 C62.6214809,1.80863777 61.0486408,0 58.0928573,0 C54.8336519,0 53.3175744,1.51743438 53.3175744,3.79199758 C53.3175744,8.96376976 60.0826446,7.27267226 60.0826446,9.97503971 C60.0826446,11.1409122 59.4758007,11.5496559 57.997909,11.5496559 C55.969936,11.5496559 55.7996482,10.1105817 55.7243088,9.74101808 C55.6665141,9.50805537 55.4962263,9.21685198 55.1742275,9.21685198 L53.6395732,9.21685198 C53.3175744,9.21685198 53.0523383,9.48899478 53.0523383,9.81937826 C53.0523383,11.6470766 54.5673837,14 57.997909,14 C60.4232202,14 62.8299545,12.94955 62.8299545,9.97503971 C62.8299545,4.60842599 56.0648844,6.2804629 56.0648844,3.79199758 C56.0648844,2.72248695 56.8234391,2.45034415 58.0546716,2.45034415 C59.285904,2.45034415 59.6842743,3.16935179 59.874171,3.81105817 C59.9680873,4.18062174 60.157984,4.35534377 60.4799828,4.35534377 L62.034246,4.35534377 Z M74.1886672,8.94470917 C73.8099059,8.94470917 73.7345664,9.25497315 73.6963807,9.54723546 C73.6014323,10.4801452 72.919249,11.3548143 71.5363056,11.3548143 C70.1523302,11.3548143 69.0346229,10.3054232 69.0346229,8.3030028 L69.0346229,5.73617729 C69.0346229,3.7337569 70.1523302,2.64518569 71.5363056,2.64518569 C72.919249,2.64518569 73.5446697,3.59715604 73.6963807,4.53112473 C73.7531433,4.91974888 73.9616168,5.05529083 74.1700904,5.05529083 L76.103115,5.05529083 C76.386928,5.05529083 76.538639,4.86150821 76.5200621,4.5692459 C76.3683511,2.21738144 74.5684606,0 71.5363056,0 C68.5041506,0 66.287313,2.2946827 66.287313,5.6969972 L66.287313,8.3030028 C66.287313,11.7053173 68.5041506,14 71.5363056,14 C74.5684606,14 76.386928,11.7053173 76.5582479,9.4106346 C76.5768247,9.19673247 76.4065369,8.94470917 76.1413007,8.94470917 L74.1886672,8.94470917 Z M89.5930054,13.8051585 C89.9150042,13.8051585 90.1802403,13.5330157 90.1802403,13.2026322 L90.1802403,0.797367824 C90.1802403,0.466984343 89.9150042,0.19484154 89.5930054,0.19484154 L88.0201653,0.19484154 C87.6981665,0.19484154 87.4329304,0.466984343 87.4329304,0.797367824 L87.4329304,5.65887603 L82.9414605,5.65887603 L82.9414605,0.797367824 C82.9414605,0.466984343 82.6762243,0.19484154 82.3542256,0.19484154 L80.7813855,0.19484154 C80.4593867,0.19484154 80.1931185,0.466984343 80.1931185,0.797367824 L80.1931185,13.2026322 C80.1931185,13.5330157 80.4593867,13.8051585 80.7813855,13.8051585 L82.3542256,13.8051585 C82.6762243,13.8051585 82.9414605,13.5330157 82.9414605,13.2026322 L82.9414605,8.3030028 L87.4329304,8.3030028 L87.4329304,13.2026322 C87.4329304,13.5330157 87.6981665,13.8051585 88.0201653,13.8051585 L89.5930054,13.8051585 Z M103.038518,0.797367824 C103.038518,0.466984343 102.773282,0.19484154 102.451283,0.19484154 L95.2496567,0.19484154 C94.927658,0.19484154 94.6624218,0.466984343 94.6624218,0.797367824 L94.6624218,13.2026322 C94.6624218,13.5330157 94.927658,13.8051585 95.2496567,13.8051585 L102.451283,13.8051585 C102.773282,13.8051585 103.038518,13.5330157 103.038518,13.2026322 L103.038518,11.7444974 C103.038518,11.4141139 102.773282,11.1610317 102.451283,11.1610317 L97.4107638,11.1610317 L97.4107638,8.22464261 L101.313967,8.22464261 C101.635966,8.22464261 101.901202,7.95249981 101.901202,7.62211633 L101.901202,6.18304213 C101.901202,5.85265865 101.635966,5.58051585 101.313967,5.58051585 L97.4107638,5.58051585 L97.4107638,2.83896831 L102.451283,2.83896831 C102.773282,2.83896831 103.038518,2.5668255 103.038518,2.23644202 L103.038518,0.797367824 Z M115.204292,4.35534377 C115.52629,4.35534377 115.791526,4.08320097 115.791526,3.75281749 C115.791526,1.80863777 114.218686,0 111.262903,0 C108.002665,0 106.486588,1.51743438 106.486588,3.79199758 C106.486588,8.96376976 113.25269,7.27267226 113.25269,9.97503971 C113.25269,11.1409122 112.645846,11.5496559 111.167954,11.5496559 C109.139982,11.5496559 108.969694,10.1105817 108.893322,9.74101808 C108.83656,9.50805537 108.666272,9.21685198 108.344273,9.21685198 L106.809619,9.21685198 C106.486588,9.21685198 106.221352,9.48899478 106.221352,9.81937826 C106.221352,11.6470766 107.737429,14 111.167954,14 C113.593266,14 116,12.94955 116,9.97503971 C116,4.60842599 109.23493,6.2804629 109.23493,3.79199758 C109.23493,2.72248695 109.992453,2.45034415 111.224717,2.45034415 C112.45595,2.45034415 112.85432,3.16935179 113.044216,3.81105817 C113.138133,4.18062174 113.32803,4.35534377 113.650028,4.35534377 L115.204292,4.35534377 Z" id="Fill-6" fill="#FFFFFF"></path>
        </g>
    </g>
</svg>